<svg width="1037" height="143" viewBox="0 0 1037 143" fill="none" xmlns="http://www.w3.org/2000/svg">
<path d="M114.792 141.342C107.12 141.342 100.875 135.095 100.875 127.42C100.875 119.745 107.12 113.497 114.792 113.497C122.464 113.497 128.709 119.745 128.709 127.42C128.709 135.095 122.464 141.342 114.792 141.342ZM114.792 120.295C110.865 120.295 107.671 123.491 107.671 127.42C107.671 131.349 110.865 134.544 114.792 134.544C118.72 134.544 121.914 131.349 121.914 127.42C121.914 123.491 118.72 120.295 114.792 120.295Z" fill="#15233E"/>
<path d="M139.01 41.2336C138.582 41.2065 138.229 40.9073 138.127 40.4859C133.105 19.1806 113.95 3.2663 91.1311 3.2663C68.6388 3.2663 49.1908 18.9767 44.1283 40.4859C44.0332 40.9005 43.673 41.2065 43.2449 41.2336C19.8897 42.7768 1.35901 62.2805 1.35901 86.0263C1.35901 110.778 21.4866 130.921 46.2349 130.921C62.1765 130.921 76.9494 121.879 84.995 108.147C85.2668 107.678 85.0969 107.073 84.6212 106.808L80.3606 105.007C79.8985 104.748 79.3073 104.911 79.0491 105.374C72.1587 117.44 59.7234 124.13 46.2349 124.13C25.2375 124.13 8.15426 107.039 8.15426 86.0331C8.15426 66.1283 23.4979 49.7517 42.9731 48.0861C44.0876 47.9638 45.3651 47.9026 46.7921 47.9638C47.4988 47.9909 48.1715 48.0521 48.7967 48.1269C49.3267 48.1881 49.8092 47.8074 49.8635 47.2704C49.9111 46.8081 49.9655 46.2846 50.013 45.9311C52.7923 25.4825 70.4735 10.0644 91.1311 10.0644C110.545 10.0644 126.874 23.4702 131.386 41.5124C131.61 42.4437 131.821 43.4294 132.005 44.4831C132.161 45.3737 132.283 46.237 132.371 47.0596C132.433 47.5695 132.881 47.9434 133.398 47.9094C134.063 47.8618 134.777 47.8346 135.531 47.8346C136.917 47.8346 138.181 47.9366 139.289 48.0861C158.764 49.7449 174.108 66.1283 174.108 86.0331C174.108 107.039 157.025 124.13 136.027 124.13C134.729 124.13 133.418 124.062 132.134 123.932C131.549 123.871 131.046 124.327 131.046 124.911V130.132C131.046 130.425 131.271 130.669 131.563 130.69C132.582 130.765 134.845 130.921 136.034 130.921C160.776 130.921 180.91 110.785 180.91 86.0263C180.91 62.2737 162.373 42.77 139.01 41.2336Z" fill="#4A98E2"/>
<path d="M136.034 132.28C134.716 132.28 132.202 132.097 131.461 132.043C130.469 131.968 129.687 131.125 129.687 130.126V124.905C129.687 124.245 129.966 123.606 130.462 123.164C130.958 122.722 131.61 122.505 132.27 122.573C133.513 122.702 134.777 122.763 136.027 122.763C156.277 122.763 172.749 106.285 172.749 86.0263C172.749 67.114 158.003 51.0433 139.174 49.4321C137.923 49.269 136.72 49.1874 135.525 49.1874C134.852 49.1874 134.165 49.2078 133.493 49.2554C132.242 49.3438 131.162 48.4464 131.019 47.2024C130.924 46.373 130.802 45.5368 130.659 44.7075C130.496 43.7489 130.292 42.7768 130.061 41.8251C125.59 23.9325 109.58 11.424 91.1311 11.424C71.1463 11.424 54.0494 26.339 51.3585 46.1147C51.3109 46.4614 51.2566 46.9644 51.209 47.4063C51.1411 48.0317 50.8421 48.5892 50.3528 48.9835C49.8636 49.371 49.252 49.5477 48.6336 49.4729C48.0085 49.3982 47.3697 49.3438 46.731 49.3166C45.5282 49.269 44.3118 49.303 43.1159 49.4321C24.2591 51.0433 9.51335 67.114 9.51335 86.0263C9.51335 106.285 25.985 122.763 46.2349 122.763C59.5808 122.763 71.4113 116.006 77.8668 104.694C78.4852 103.62 79.8442 103.219 80.945 103.776L85.2804 105.618C85.824 105.924 86.2385 106.448 86.4016 107.046C86.5647 107.658 86.4832 108.29 86.1638 108.834C77.6901 123.293 62.3872 132.28 46.2349 132.28C20.7391 132.28 0 111.533 0 86.0263C0 61.8387 18.8093 41.6347 42.8712 39.8944C45.4398 29.2622 51.6031 19.6293 60.2467 12.7428C69.0262 5.7544 79.9937 1.90668 91.1311 1.90668C102.37 1.90668 113.386 5.78159 122.151 12.8244C130.707 19.6973 136.822 29.303 139.384 39.8944C163.453 41.6279 182.262 61.8387 182.262 86.0263C182.269 111.533 161.523 132.28 136.034 132.28ZM132.405 129.385C133.731 129.48 135.212 129.561 136.027 129.561C160.021 129.561 179.544 110.03 179.544 86.0263C179.544 63.1711 161.7 44.0888 138.922 42.5865C137.896 42.5185 137.04 41.7979 136.809 40.7918C131.787 19.5001 113.005 4.62591 91.1311 4.62591C69.597 4.62591 50.3868 19.84 45.4466 40.7986C45.2088 41.8047 44.3594 42.5253 43.3333 42.5933C20.5556 44.0956 2.7181 63.1779 2.7181 86.0331C2.7181 110.037 22.2409 129.568 46.2349 129.568C61.2864 129.568 75.5564 121.261 83.5884 107.855L80.0481 106.359C73.0626 118.344 60.4438 125.489 46.2281 125.489C24.4833 125.489 6.78846 107.787 6.78846 86.0331C6.78846 65.7204 22.6282 48.46 42.8509 46.7333C44.1488 46.5905 45.5078 46.5498 46.8397 46.6041C47.4105 46.6245 47.9813 46.6721 48.5453 46.7265C48.5861 46.373 48.6268 46.0127 48.6608 45.7476C51.542 24.6259 69.794 8.70477 91.1311 8.70477C110.824 8.70477 127.921 22.0562 132.704 41.1793C132.956 42.199 133.167 43.2323 133.343 44.252C133.472 45.0066 133.588 45.768 133.676 46.5226C134.295 46.4886 134.927 46.475 135.525 46.4682C136.836 46.4682 138.161 46.5566 139.459 46.7265C159.62 48.4464 175.46 65.7068 175.46 86.0195C175.46 107.773 157.765 125.476 136.021 125.476C134.811 125.476 133.595 125.421 132.399 125.312V129.385H132.405Z" fill="#4A98E2"/>
<path d="M114.792 131.648C117.127 131.648 119.019 129.755 119.019 127.42C119.019 125.085 117.127 123.191 114.792 123.191C112.458 123.191 110.566 125.085 110.566 127.42C110.566 129.755 112.458 131.648 114.792 131.648Z" fill="#4A98E2"/>
<path d="M126.942 63.3954L124 61.356L113.365 52.4845C112.387 51.6687 110.892 52.0562 110.464 53.2391L107.209 62.1106C106.692 63.5178 107.705 65.0201 109.22 65.1017L119.291 65.6048L123.395 68.4532C125.624 69.9964 123.742 74.6123 123.205 75.7951C121.322 77.9161 110.45 90.0983 103.118 97.2771C99.3806 100.934 94.7938 100.554 91.634 99.6021L81.4547 95.8631C78.4308 94.5443 74.6866 91.8726 74.1973 86.6585C73.2392 76.4409 72.8315 60.1119 72.7635 57.2771C73.1237 56.0263 74.6662 51.2948 77.3639 51.5531L82.3381 52.0358L90.3429 58.1677C91.5456 59.0854 93.292 58.5959 93.8084 57.1887L97.0634 48.3172C97.4983 47.1344 96.6081 45.8767 95.3374 45.8631L81.4955 45.7544L77.9347 45.4076C71.024 44.7346 67.5652 51.8726 66.6071 56.203L66.5255 56.5565L66.5323 56.9236C66.5459 57.685 66.94 75.7815 68.0001 87.1683C68.7272 94.9861 74.1498 99.4049 79.1171 101.567V101.573L87.2035 104.537C87.5976 104.707 89.7449 105.469 89.7449 105.469V105.462C94.9297 107.026 101.915 107.162 107.528 101.669C115.703 93.6673 127.696 80.1187 128.199 79.5477L128.444 79.2757L128.614 78.9562C130.673 75.0405 132.65 67.3519 126.942 63.3954Z" fill="#15233E"/>
<path d="M95.881 106.74C93.5842 106.74 91.5185 106.325 89.942 105.877L89.9352 105.89L89.6226 105.782C89.5342 105.748 87.4617 105.013 87.0608 104.843L78.6618 101.764L78.6754 101.737C74.7682 99.9692 68.469 95.8087 67.6603 87.1955C66.6003 75.8563 66.2061 57.6918 66.1858 56.9236L66.179 56.5158L66.2673 56.1215C67.2458 51.6891 70.8133 44.3608 77.9619 45.061L81.5226 45.4077L95.3374 45.5164C96.0509 45.5232 96.7236 45.8767 97.1245 46.4614C97.5323 47.046 97.6206 47.7598 97.376 48.426L94.121 57.2975C93.8424 58.0657 93.2241 58.6368 92.4358 58.8611C91.634 59.0922 90.7914 58.9359 90.1254 58.426L82.1954 52.3553L77.3232 51.8795C74.9041 51.6347 73.4091 56.2438 73.0965 57.3043C73.1713 60.547 73.5858 76.5089 74.5303 86.6109C74.9992 91.6415 78.6279 94.2384 81.5838 95.5368L91.7427 99.2622C94.8142 100.187 99.2583 100.547 102.873 97.012C110.103 89.9352 120.752 78.0113 122.906 75.5844C123.354 74.5783 125.196 70.0983 123.191 68.7115L119.162 65.9243L109.186 65.4281C108.35 65.3873 107.603 64.959 107.148 64.2656C106.692 63.579 106.597 62.7496 106.876 61.9814L110.131 53.1099C110.375 52.4437 110.905 51.961 111.592 51.7775C112.278 51.5939 113.019 51.7571 113.569 52.2126L124.197 61.0841L127.112 63.1031C133.017 67.1956 131.006 75.0813 128.886 79.099L128.668 79.4865L128.423 79.7584C127.914 80.3295 115.907 93.8985 107.732 101.893C103.933 105.666 99.598 106.74 95.881 106.74ZM89.7721 105.122L89.8332 105.143C93.7337 106.319 101.181 107.399 107.277 101.438C115.431 93.4566 127.425 79.908 127.934 79.337L128.152 79.0922L128.301 78.8067C130.319 74.9862 132.256 67.5015 126.745 63.6877L123.803 61.6483L113.148 52.7564C112.76 52.4369 112.264 52.3281 111.782 52.4573C111.313 52.5865 110.946 52.9128 110.776 53.3682L107.521 62.2397C107.317 62.7972 107.385 63.409 107.718 63.9121C108.058 64.4287 108.609 64.7414 109.227 64.7686L119.393 65.2785L123.578 68.1813C125.998 69.8604 124.136 74.5443 123.504 75.9379L123.449 76.0263C121.37 78.3648 110.634 90.3975 103.349 97.5287C99.5029 101.295 94.8006 100.914 91.5321 99.9352L81.3324 96.1894C78.1862 94.8162 74.3537 92.063 73.8508 86.6993C72.8995 76.5225 72.485 60.4179 72.417 57.2975V57.2432L72.4306 57.1956C72.8519 55.7204 74.4488 50.9481 77.3911 51.2268L82.4604 51.7231L90.5467 57.9162C91.036 58.2901 91.6612 58.4124 92.2524 58.2357C92.8299 58.0657 93.2784 57.651 93.4891 57.0868L96.744 48.2153C96.9071 47.7598 96.8459 47.2703 96.5673 46.8693C96.2819 46.4614 95.8335 46.2234 95.3306 46.2166L81.4887 46.1079L77.894 45.7612C71.221 45.1086 67.8642 52.0698 66.9332 56.2914L66.8653 56.6109L66.8721 56.9372C66.8857 57.7054 67.2866 75.8427 68.3399 87.1616C69.1349 95.6524 75.5156 99.6497 79.253 101.274L79.3142 101.302L87.319 104.238C87.6655 104.374 89.3847 104.986 89.7721 105.122Z" fill="#15233E"/>
<path d="M220.079 114.61C215.81 114.61 212.262 111.062 212.262 106.793V44.2724C212.262 40.0035 215.81 36.4555 220.079 36.4555H243.53C265.143 36.4555 282.614 53.9128 282.614 75.54C282.614 97.1672 265.157 114.624 243.53 114.624H220.079V114.61ZM227.896 52.0752V98.9765H243.53C256.478 98.9765 266.98 88.4739 266.98 75.5259C266.98 62.5778 256.478 52.0752 243.53 52.0752H227.896Z" fill="#15233E"/>
<path d="M297.259 51.1C300.807 51.1 303.86 53.1779 305.203 56.2311C309.839 53.6726 315.098 52.0753 320.709 52.0753C324.978 52.0753 328.526 55.6233 328.526 59.8922C328.526 64.1611 324.978 67.7091 320.709 67.7091C312.044 67.7091 305.076 74.6637 305.076 83.3429V106.794C305.076 111.062 301.528 114.61 297.259 114.61C292.99 114.61 289.442 111.062 289.442 106.794V83.3429C289.442 77.7311 288.466 63.4402 288.466 59.8922C288.466 55.0155 292.382 51.1 297.259 51.1Z" fill="#15233E"/>
<path d="M324.625 97.0258C329.516 97.0258 333.417 100.941 333.417 105.818C333.417 110.709 329.516 114.61 324.625 114.61C319.734 114.61 315.833 110.709 315.833 105.818C315.833 100.927 319.734 97.0258 324.625 97.0258Z" fill="#15233E"/>
<path d="M409.621 114.61C388.008 114.61 370.537 97.1532 370.537 75.526C370.537 53.8988 387.994 36.4415 409.621 36.4415C419.629 36.4415 429.524 40.3429 437.228 47.9195C438.698 49.3896 439.546 51.4675 439.546 53.4182C439.546 57.6871 435.885 61.2351 431.729 61.2351C429.651 61.2351 427.7 60.5 426.23 58.9169C421.707 54.2804 415.6 52.0753 409.621 52.0753C396.673 52.0753 386.17 62.5779 386.17 75.526C386.17 88.4741 396.673 98.9767 409.621 98.9767C415.6 98.9767 421.594 96.7857 426.23 92.1351C427.7 90.665 429.651 89.8169 431.729 89.8169C435.885 89.8169 439.546 93.478 439.546 97.6338C439.546 99.7117 438.698 101.662 437.228 103.133C429.524 110.822 419.629 114.61 409.621 114.61Z" fill="#4A98E2"/>
<path d="M461.399 106.794C461.399 111.063 457.851 114.61 453.582 114.61C449.313 114.61 445.765 111.063 445.765 106.794V36.4557C445.765 32.1868 449.313 28.6388 453.582 28.6388C457.851 28.6388 461.399 32.1868 461.399 36.4557V106.794Z" fill="#4A98E2"/>
<path d="M499.509 52.0752C516.726 52.0752 530.776 66.1258 530.776 83.3428C530.776 100.56 516.726 114.61 499.509 114.61C482.292 114.61 468.241 100.56 468.241 83.3428C468.241 66.1258 482.292 52.0752 499.509 52.0752ZM499.509 98.9766C508.174 98.9766 515.143 92.022 515.143 83.3428C515.143 74.6636 508.188 67.709 499.509 67.709C490.83 67.709 483.875 74.6636 483.875 83.3428C483.875 92.022 490.844 98.9766 499.509 98.9766Z" fill="#4A98E2"/>
<path d="M590.371 52.0752C586.102 52.0752 582.554 55.6232 582.554 59.8921V83.3428C582.554 92.0078 575.6 98.9766 566.921 98.9766C558.241 98.9766 551.287 92.022 551.287 83.3428V59.8921C551.287 55.6232 547.753 52.0752 543.47 52.0752C539.201 52.0752 535.653 55.6232 535.653 59.8921V83.3428C535.653 100.56 549.704 114.61 566.921 114.61C584.138 114.61 598.188 100.56 598.188 83.3428V59.8921C598.188 55.6232 594.64 52.0752 590.371 52.0752Z" fill="#4A98E2"/>
<path d="M667.551 83.3428V36.4415C667.551 32.1726 664.017 28.6246 659.734 28.6246C655.465 28.6246 651.917 32.1726 651.917 36.4415V56.2876C647.309 53.616 641.98 52.0753 636.283 52.0753C619.066 52.0753 605.016 66.1259 605.016 83.3428C605.016 100.56 619.066 114.61 636.283 114.61C652.779 114.61 666.335 101.733 667.466 85.5197C667.466 85.4349 667.48 85.3501 667.48 85.2653C667.523 84.6292 667.551 83.9931 667.551 83.3428ZM636.297 98.9766C627.632 98.9766 620.664 92.022 620.664 83.3428C620.664 74.6637 627.618 67.709 636.297 67.709C644.977 67.709 651.931 74.6637 651.931 83.3428C651.931 92.022 644.962 98.9766 636.297 98.9766Z" fill="#4A98E2"/>
<path d="M752.851 93.6745H717.851L710.951 109.875H697.551L729.051 39.8745H741.851L773.451 109.875H759.851L752.851 93.6745ZM748.551 83.4745L735.351 52.8745L722.251 83.4745H748.551Z" fill="#5E5873"/>
<path d="M832.965 35.6745V109.875H820.965V102.975C818.898 105.508 816.332 107.408 813.265 108.675C810.265 109.941 806.932 110.575 803.265 110.575C798.132 110.575 793.498 109.441 789.365 107.175C785.298 104.908 782.098 101.708 779.765 97.5745C777.432 93.3745 776.265 88.5745 776.265 83.1745C776.265 77.7745 777.432 73.0079 779.765 68.8745C782.098 64.7412 785.298 61.5412 789.365 59.2745C793.498 57.0079 798.132 55.8745 803.265 55.8745C806.798 55.8745 810.032 56.4745 812.965 57.6745C815.898 58.8745 818.398 60.6745 820.465 63.0745V35.6745H832.965ZM804.765 99.8745C807.765 99.8745 810.465 99.2079 812.865 97.8745C815.265 96.4745 817.165 94.5079 818.565 91.9745C819.965 89.4412 820.665 86.5079 820.665 83.1745C820.665 79.8412 819.965 76.9079 818.565 74.3745C817.165 71.8412 815.265 69.9079 812.865 68.5745C810.465 67.1745 807.765 66.4745 804.765 66.4745C801.765 66.4745 799.065 67.1745 796.665 68.5745C794.265 69.9079 792.365 71.8412 790.965 74.3745C789.565 76.9079 788.865 79.8412 788.865 83.1745C788.865 86.5079 789.565 89.4412 790.965 91.9745C792.365 94.5079 794.265 96.4745 796.665 97.8745C799.065 99.2079 801.765 99.8745 804.765 99.8745Z" fill="#5E5873"/>
<path d="M916.717 55.8745C923.451 55.8745 928.784 57.8412 932.717 61.7745C936.651 65.6412 938.617 71.4745 938.617 79.2745V109.875H926.117V80.8745C926.117 76.2079 925.084 72.7079 923.017 70.3745C920.951 67.9745 917.984 66.7745 914.117 66.7745C909.917 66.7745 906.551 68.1745 904.017 70.9745C901.484 73.7079 900.217 77.6412 900.217 82.7745V109.875H887.717V80.8745C887.717 76.2079 886.684 72.7079 884.617 70.3745C882.551 67.9745 879.584 66.7745 875.717 66.7745C871.451 66.7745 868.051 68.1412 865.517 70.8745C863.051 73.6079 861.817 77.5745 861.817 82.7745V109.875H849.317V56.4745H861.217V63.2745C863.217 60.8745 865.717 59.0412 868.717 57.7745C871.717 56.5079 875.051 55.8745 878.717 55.8745C882.717 55.8745 886.251 56.6412 889.317 58.1745C892.451 59.6412 894.917 61.8412 896.717 64.7745C898.917 61.9745 901.751 59.8079 905.217 58.2745C908.684 56.6745 912.517 55.8745 916.717 55.8745Z" fill="#5E5873"/>
<path d="M954.591 56.4745H967.091V109.875H954.591V56.4745ZM960.891 47.6745C958.624 47.6745 956.724 46.9745 955.191 45.5745C953.657 44.1079 952.891 42.3079 952.891 40.1745C952.891 38.0412 953.657 36.2745 955.191 34.8745C956.724 33.4079 958.624 32.6745 960.891 32.6745C963.157 32.6745 965.057 33.3745 966.591 34.7745C968.124 36.1079 968.891 37.8079 968.891 39.8745C968.891 42.0745 968.124 43.9412 966.591 45.4745C965.124 46.9412 963.224 47.6745 960.891 47.6745Z" fill="#5E5873"/>
<path d="M1013.8 55.8745C1020.53 55.8745 1025.93 57.8412 1030 61.7745C1034.06 65.7079 1036.1 71.5412 1036.1 79.2745V109.875H1023.6V80.8745C1023.6 76.2079 1022.5 72.7079 1020.3 70.3745C1018.1 67.9745 1014.96 66.7745 1010.9 66.7745C1006.3 66.7745 1002.66 68.1745 999.997 70.9745C997.33 73.7079 995.997 77.6745 995.997 82.8745V109.875H983.497V56.4745H995.397V63.3745C997.464 60.9079 1000.06 59.0412 1003.2 57.7745C1006.33 56.5079 1009.86 55.8745 1013.8 55.8745Z" fill="#5E5873"/>
</svg>
