<svg width="238" height="182" viewBox="0 0 238 182" fill="none" xmlns="http://www.w3.org/2000/svg">
<path d="M145.688 181.33C135.72 181.33 127.605 173.216 127.605 163.248C127.605 153.28 135.72 145.166 145.688 145.166C155.656 145.166 163.77 153.28 163.77 163.248C163.77 173.216 155.656 181.33 145.688 181.33ZM145.688 153.995C140.584 153.995 136.435 158.145 136.435 163.248C136.435 168.351 140.584 172.501 145.688 172.501C150.791 172.501 154.941 168.351 154.941 163.248C154.941 158.145 150.791 153.995 145.688 153.995Z" fill="#15233E"/>
<path d="M180.853 51.311C180.297 51.2757 179.838 50.8872 179.705 50.3398C173.172 22.6691 148.282 2 118.643 2C89.4179 2 64.1488 22.4042 57.571 50.3398C57.4474 50.8784 56.9794 51.2757 56.4232 51.311C26.0772 53.3152 2 78.6462 2 109.487C2 141.634 28.1521 167.794 60.308 167.794C81.0214 167.794 100.216 156.052 110.67 138.217C111.023 137.607 110.802 136.822 110.184 136.477L104.648 134.138C104.048 133.802 103.28 134.014 102.944 134.614C93.9915 150.286 77.834 158.974 60.308 158.974C33.0258 158.974 10.8292 136.778 10.8292 109.495C10.8292 83.6435 30.7655 62.374 56.07 60.2108C57.518 60.0519 59.1779 59.9724 61.032 60.0519C61.9503 60.0872 62.8244 60.1667 63.6367 60.2638C64.3253 60.3433 64.9522 59.8488 65.0228 59.1513C65.0846 58.5509 65.1553 57.8711 65.2171 57.412C68.8282 30.8538 91.793 10.8292 118.643 10.8292C143.868 10.8292 165.084 28.2403 170.947 51.673C171.238 52.8826 171.512 54.1628 171.75 55.5314C171.953 56.688 172.112 57.8093 172.227 58.8776C172.306 59.5398 172.889 60.0254 173.56 59.9813C174.425 59.9195 175.353 59.8841 176.333 59.8841C178.134 59.8841 179.776 60.0166 181.215 60.2108C206.52 62.3651 226.456 83.6435 226.456 109.495C226.456 136.778 204.259 158.974 176.977 158.974C175.291 158.974 173.587 158.886 171.918 158.718C171.159 158.639 170.505 159.23 170.505 159.989V166.77C170.505 167.15 170.797 167.468 171.176 167.494C172.501 167.591 175.441 167.794 176.986 167.794C209.133 167.794 235.294 141.642 235.294 109.487C235.285 78.6373 211.199 53.3064 180.853 51.311Z" fill="#4A98E2" stroke="#4A98E2" stroke-width="4" stroke-miterlimit="10"/>
<path d="M145.682 168.739C148.715 168.739 151.174 166.28 151.174 163.247C151.174 160.214 148.715 157.755 145.682 157.755C142.649 157.755 140.19 160.214 140.19 163.247C140.19 166.28 142.649 168.739 145.682 168.739Z" fill="#4A98E2"/>
<path d="M164.415 80.0962L160.592 77.4475L146.783 65.9254C145.511 64.8659 143.569 65.3691 143.013 66.9054L138.784 78.4275C138.113 80.2552 139.428 82.2064 141.397 82.3124L154.482 82.9657L159.815 86.6652C162.711 88.6694 160.265 94.6644 159.568 96.2007C157.122 98.9554 142.995 114.777 133.468 124.101C128.612 128.851 122.653 128.357 118.547 127.121L105.321 122.265C101.392 120.552 96.527 117.082 95.8913 110.31C94.6464 97.0395 94.1166 75.8317 94.0283 72.15C94.4963 70.5254 96.5005 64.3803 100.006 64.7158L106.469 65.3427L116.869 73.3066C118.432 74.4985 120.701 73.8628 121.372 72.0352L125.602 60.5131C126.167 58.9768 125.01 57.3434 123.359 57.3257L105.374 57.1845L100.747 56.7342C91.7681 55.8601 87.274 65.1308 86.0291 70.755L85.9231 71.2141L85.932 71.6909C85.9496 72.6797 86.4617 96.183 87.8391 110.972C88.7838 121.126 95.8295 126.865 102.284 129.672V129.681L112.79 133.531C113.302 133.751 116.093 134.74 116.093 134.74V134.731C122.829 136.762 131.906 136.939 139.199 129.805C149.82 119.413 165.404 101.816 166.057 101.074L166.375 100.721L166.596 100.306C169.262 95.2207 171.831 85.2348 164.415 80.0962Z" fill="#15233E" stroke="#15233E" stroke-miterlimit="10"/>
</svg>
