<svg height='36' viewBox='0 0 670 140' fill='none' xmlns='http://www.w3.org/2000/svg'>
<path d="M115.792 139.436C108.12 139.436 101.876 133.188 101.876 125.513C101.876 117.838 108.12 111.591 115.792 111.591C123.464 111.591 129.709 117.838 129.709 125.513C129.709 133.188 123.464 139.436 115.792 139.436ZM115.792 118.389C111.865 118.389 108.671 121.584 108.671 125.513C108.671 129.442 111.865 132.638 115.792 132.638C119.72 132.638 122.914 129.442 122.914 125.513C122.914 121.584 119.72 118.389 115.792 118.389Z" fill="#15233E"/>
<path d="M140.01 39.327C139.582 39.2998 139.229 39.0007 139.127 38.5792C134.105 17.274 114.95 1.35962 92.1311 1.35962C69.6389 1.35962 50.1908 17.07 45.1284 38.5792C45.0333 38.9939 44.6731 39.2998 44.245 39.327C20.8897 40.8701 2.35907 60.3739 2.35907 84.1196C2.35907 108.871 22.4866 129.014 47.2349 129.014C63.1766 129.014 77.9495 119.973 85.995 106.241C86.2668 105.772 86.097 105.166 85.6213 104.901L81.3607 103.1C80.8986 102.842 80.3074 103.005 80.0492 103.467C73.1588 115.534 60.7235 122.223 47.2349 122.223C26.2376 122.223 9.15432 105.133 9.15432 84.1264C9.15432 64.2216 24.498 47.845 43.9732 46.1794C45.0876 46.0571 46.3651 45.9959 47.7921 46.0571C48.4988 46.0843 49.1716 46.1455 49.7967 46.2202C50.3268 46.2814 50.8092 45.9007 50.8636 45.3637C50.9111 44.9014 50.9655 44.378 51.0131 44.0245C53.7923 23.5758 71.4736 8.15771 92.1311 8.15771C111.545 8.15771 127.874 21.5635 132.386 39.6057C132.61 40.537 132.821 41.5228 133.005 42.5765C133.161 43.467 133.283 44.3304 133.372 45.1529C133.433 45.6628 133.881 46.0367 134.398 46.0027C135.064 45.9551 135.777 45.9279 136.531 45.9279C137.918 45.9279 139.181 46.0299 140.289 46.1794C159.764 47.8382 175.108 64.2216 175.108 84.1264C175.108 105.133 158.025 122.223 137.027 122.223C135.729 122.223 134.418 122.155 133.134 122.026C132.549 121.965 132.046 122.42 132.046 123.005V128.226C132.046 128.518 132.271 128.763 132.563 128.783C133.582 128.858 135.845 129.014 137.034 129.014C161.776 129.014 181.91 108.878 181.91 84.1196C181.91 60.3671 163.373 40.8633 140.01 39.327Z" fill="#4A98E2"/>
<path d="M137.034 130.374C135.716 130.374 133.202 130.19 132.461 130.136C131.469 130.061 130.687 129.218 130.687 128.219V122.998C130.687 122.338 130.966 121.699 131.462 121.258C131.958 120.816 132.61 120.598 133.27 120.666C134.513 120.795 135.777 120.856 137.027 120.856C157.277 120.856 173.749 104.378 173.749 84.1196C173.749 65.2073 159.003 49.1366 140.174 47.5255C138.923 47.3623 137.72 47.2807 136.525 47.2807C135.852 47.2807 135.165 47.3011 134.493 47.3487C133.242 47.4371 132.162 46.5397 132.019 45.2957C131.924 44.4663 131.802 43.6302 131.659 42.8008C131.496 41.8423 131.292 40.8701 131.061 39.9184C126.59 22.0258 110.58 9.51733 92.1311 9.51733C72.1463 9.51733 55.0494 24.4323 52.3585 44.208C52.3109 44.5547 52.2566 45.0578 52.209 45.4996C52.1411 46.1251 51.8421 46.6825 51.3528 47.0768C50.8636 47.4643 50.252 47.641 49.6336 47.5663C49.0085 47.4915 48.3697 47.4371 47.7309 47.4099C46.5282 47.3623 45.3118 47.3963 44.1159 47.5255C25.2591 49.1366 10.5134 65.2073 10.5134 84.1196C10.5134 104.378 26.9851 120.856 47.2349 120.856C60.5808 120.856 72.4113 114.099 78.8668 102.787C79.4852 101.713 80.8442 101.312 81.945 101.869L86.2804 103.712C86.824 104.018 87.2385 104.541 87.4016 105.139C87.5647 105.751 87.4832 106.383 87.1638 106.927C78.6901 121.387 63.3872 130.374 47.2349 130.374C21.7391 130.374 1 109.626 1 84.1196C1 59.932 19.8093 39.7281 43.8712 37.9877C46.4398 27.3555 52.6031 17.7226 61.2467 10.8362C70.0262 3.84772 80.9937 0 92.1311 0C103.37 0 114.386 3.87491 123.151 10.9177C131.707 17.7906 137.822 27.3963 140.384 37.9877C164.453 39.7213 183.262 59.932 183.262 84.1196C183.269 109.626 162.523 130.374 137.034 130.374ZM133.405 127.478C134.731 127.573 136.212 127.655 137.027 127.655C161.021 127.655 180.544 108.124 180.544 84.1196C180.544 61.2644 162.7 42.1822 139.922 40.6798C138.896 40.6118 138.04 39.8912 137.809 38.8851C132.787 17.5935 114.005 2.71924 92.1311 2.71924C70.597 2.71924 51.3868 17.9334 46.4466 38.8919C46.2088 39.898 45.3594 40.6186 44.3333 40.6866C21.5556 42.189 3.7181 61.2712 3.7181 84.1264C3.7181 108.13 23.2409 127.661 47.2349 127.661C62.2864 127.661 76.5564 119.354 84.5884 105.948L81.0481 104.453C74.0626 116.438 61.4438 123.583 47.2281 123.583C25.4833 123.583 7.78846 105.88 7.78846 84.1264C7.78846 63.8137 23.6282 46.5533 43.8509 44.8266C45.1488 44.6839 46.5078 44.6431 47.8397 44.6975C48.4105 44.7179 48.9813 44.7654 49.5453 44.8198C49.5861 44.4663 49.6268 44.106 49.6608 43.8409C52.542 22.7192 70.794 6.79809 92.1311 6.79809C111.824 6.79809 128.921 20.1495 133.704 39.2726C133.956 40.2923 134.167 41.3256 134.343 42.3453C134.472 43.0999 134.588 43.8613 134.676 44.6159C135.295 44.5819 135.927 44.5683 136.525 44.5615C137.836 44.5615 139.161 44.6499 140.459 44.8198C160.62 46.5397 176.46 63.8001 176.46 84.1128C176.46 105.867 158.765 123.569 137.021 123.569C135.811 123.569 134.595 123.515 133.399 123.406V127.478H133.405Z" fill="#4A98E2"/>
<path d="M115.792 129.742C118.127 129.742 120.019 127.848 120.019 125.513C120.019 123.178 118.127 121.285 115.792 121.285C113.458 121.285 111.566 123.178 111.566 125.513C111.566 127.848 113.458 129.742 115.792 129.742Z" fill="#4A98E2"/>
<path d="M127.942 61.4887L125 59.4493L114.365 50.5778C113.387 49.762 111.892 50.1495 111.464 51.3324L108.209 60.2039C107.692 61.6111 108.705 63.1135 110.22 63.1951L120.291 63.6981L124.395 66.5465C126.624 68.0897 124.742 72.7056 124.205 73.8885C122.322 76.0095 111.45 88.1916 104.118 95.3704C100.381 99.0278 95.7938 98.6471 92.634 97.6954L82.4547 93.9564C79.4308 92.6376 75.6866 89.9659 75.1973 84.7518C74.2392 74.5343 73.8315 58.2053 73.7635 55.3705C74.1237 54.1196 75.6662 49.3881 78.3639 49.6465L83.3381 50.1291L91.3429 56.261C92.5456 57.1787 94.292 56.6893 94.8084 55.2821L98.0634 46.4106C98.4983 45.2277 97.6081 43.9701 96.3374 43.9565L82.4955 43.8477L78.9347 43.501C72.024 42.828 68.5652 49.966 67.6071 54.2964L67.5255 54.6499L67.5323 55.017C67.5459 55.7783 67.94 73.8749 69.0001 85.2617C69.7272 93.0795 75.1498 97.4982 80.1171 99.66V99.6668L88.2035 102.631C88.5976 102.801 90.7449 103.562 90.7449 103.562V103.555C95.9297 105.119 102.915 105.255 108.528 99.762C116.703 91.7606 128.696 78.212 129.199 77.641L129.444 77.3691L129.614 77.0496C131.673 73.1339 133.65 65.4452 127.942 61.4887Z" fill="#15233E"/>
<path d="M96.881 104.833C94.5842 104.833 92.5185 104.419 90.942 103.97L90.9352 103.984L90.6226 103.875C90.5342 103.841 88.4617 103.107 88.0608 102.937L79.6618 99.8572L79.6754 99.83C75.7682 98.0625 69.469 93.9021 68.6603 85.2889C67.6003 73.9497 67.2061 55.7852 67.1858 55.017L67.179 54.6091L67.2673 54.2148C68.2458 49.7824 71.8133 42.4541 78.9619 43.1543L82.5226 43.501L96.3374 43.6098C97.0509 43.6166 97.7236 43.9701 98.1245 44.5547C98.5323 45.1393 98.6206 45.8531 98.376 46.5194L95.121 55.3909C94.8424 56.159 94.2241 56.7301 93.4358 56.9544C92.634 57.1856 91.7914 57.0292 91.1254 56.5193L83.1954 50.4486L78.3232 49.9728C75.9041 49.7281 74.4091 54.3372 74.0965 55.3977C74.1713 58.6403 74.5858 74.6023 75.5303 84.7042C75.9992 89.7348 79.6279 92.3317 82.5838 93.6301L92.7427 97.3555C95.8142 98.28 100.258 98.6403 103.873 95.1053C111.103 88.0285 121.752 76.1046 123.906 73.6777C124.354 72.6716 126.196 68.1917 124.191 66.8049L120.162 64.0176L110.186 63.5214C109.35 63.4806 108.603 63.0523 108.148 62.3589C107.692 61.6723 107.597 60.8429 107.876 60.0748L111.131 51.2032C111.375 50.537 111.905 50.0544 112.592 49.8708C113.278 49.6873 114.019 49.8504 114.569 50.3059L125.197 59.1774L128.112 61.1964C134.017 65.2889 132.006 73.1747 129.886 77.1923L129.668 77.5798L129.423 77.8518C128.914 78.4228 116.907 91.9918 108.732 99.9864C104.933 103.759 100.598 104.833 96.881 104.833ZM90.7721 103.215L90.8332 103.236C94.7337 104.412 102.181 105.493 108.277 99.5309C116.431 91.5499 128.425 78.0013 128.934 77.4303L129.152 77.1856L129.301 76.9C131.319 73.0795 133.256 65.5948 127.745 61.7811L124.803 59.7416L114.148 50.8497C113.76 50.5302 113.264 50.4215 112.782 50.5506C112.313 50.6798 111.946 51.0061 111.776 51.4616L108.521 60.3331C108.317 60.8905 108.385 61.5023 108.718 62.0054C109.058 62.5221 109.609 62.8348 110.227 62.862L120.393 63.3718L124.578 66.2746C126.998 67.9537 125.136 72.6376 124.504 74.0312L124.449 74.1196C122.37 76.4582 111.634 88.4908 104.349 95.622C100.503 99.3881 95.8006 99.0074 92.5321 98.0285L82.3324 94.2828C79.1862 92.9095 75.3537 90.1563 74.8508 84.7926C73.8995 74.6159 73.485 58.5112 73.417 55.3909V55.3365L73.4306 55.2889C73.8519 53.8137 75.4488 49.0414 78.3911 49.3202L83.4604 49.8164L91.5467 56.0095C92.036 56.3834 92.6612 56.5057 93.2524 56.329C93.83 56.159 94.2784 55.7444 94.4891 55.1801L97.744 46.3086C97.9071 45.8531 97.8459 45.3637 97.5673 44.9626C97.2819 44.5547 96.8335 44.3168 96.3306 44.31L82.4887 44.2012L78.894 43.8545C72.221 43.2019 68.8642 50.1631 67.9332 54.3847L67.8653 54.7043L67.8721 55.0306C67.8857 55.7987 68.2866 73.9361 69.3399 85.2549C70.1349 93.7457 76.5156 97.743 80.253 99.3677L80.3142 99.3949L88.319 102.332C88.6656 102.468 90.3848 103.079 90.7721 103.215Z" fill="#15233E"/>
<path d="M221.079 112.704C216.81 112.704 213.262 109.156 213.262 104.887V42.3658C213.262 38.0969 216.81 34.5489 221.079 34.5489H244.53C266.143 34.5489 283.614 52.0061 283.614 73.6333C283.614 95.2605 266.157 112.718 244.53 112.718H221.079V112.704ZM228.896 50.1685V97.0699H244.53C257.478 97.0699 267.981 86.5673 267.981 73.6192C267.981 60.6711 257.478 50.1685 244.53 50.1685H228.896Z" fill="#15233E"/>
<path d="M298.259 49.1933C301.807 49.1933 304.86 51.2712 306.203 54.3245C310.839 51.766 316.098 50.1686 321.709 50.1686C325.978 50.1686 329.526 53.7166 329.526 57.9855C329.526 62.2544 325.978 65.8024 321.709 65.8024C313.044 65.8024 306.076 72.7571 306.076 81.4362V104.887C306.076 109.156 302.528 112.704 298.259 112.704C293.99 112.704 290.442 109.156 290.442 104.887V81.4362C290.442 75.8245 289.466 61.5335 289.466 57.9855C289.466 53.1088 293.382 49.1933 298.259 49.1933Z" fill="#15233E"/>
<path d="M325.625 95.1191C330.516 95.1191 334.417 99.0347 334.417 103.911C334.417 108.802 330.516 112.704 325.625 112.704C320.734 112.704 316.833 108.802 316.833 103.911C316.833 99.0205 320.734 95.1191 325.625 95.1191Z" fill="#15233E"/>
<path d="M410.621 112.704C389.008 112.704 371.537 95.2465 371.537 73.6193C371.537 51.9921 388.994 34.5349 410.621 34.5349C420.629 34.5349 430.524 38.4362 438.228 46.0128C439.698 47.4829 440.546 49.5608 440.546 51.5115C440.546 55.7804 436.885 59.3284 432.729 59.3284C430.651 59.3284 428.7 58.5934 427.23 57.0102C422.707 52.3738 416.6 50.1686 410.621 50.1686C397.673 50.1686 387.17 60.6713 387.17 73.6193C387.17 86.5674 397.673 97.07 410.621 97.07C416.6 97.07 422.594 94.879 427.23 90.2285C428.7 88.7584 430.651 87.9102 432.729 87.9102C436.885 87.9102 440.546 91.5713 440.546 95.7271C440.546 97.805 439.698 99.7557 438.228 101.226C430.524 108.915 420.629 112.704 410.621 112.704Z" fill="#4A98E2"/>
<path d="M462.399 104.887C462.399 109.156 458.851 112.704 454.582 112.704C450.313 112.704 446.765 109.156 446.765 104.887V34.549C446.765 30.2801 450.313 26.7321 454.582 26.7321C458.851 26.7321 462.399 30.2801 462.399 34.549V104.887Z" fill="#4A98E2"/>
<path d="M500.509 50.1685C517.726 50.1685 531.776 64.2192 531.776 81.4361C531.776 98.6531 517.726 112.704 500.509 112.704C483.292 112.704 469.241 98.6531 469.241 81.4361C469.241 64.2192 483.292 50.1685 500.509 50.1685ZM500.509 97.0699C509.174 97.0699 516.143 90.1153 516.143 81.4361C516.143 72.757 509.188 65.8023 500.509 65.8023C491.83 65.8023 484.875 72.757 484.875 81.4361C484.875 90.1153 491.844 97.0699 500.509 97.0699Z" fill="#4A98E2"/>
<path d="M591.371 50.1685C587.102 50.1685 583.554 53.7165 583.554 57.9854V81.4361C583.554 90.1011 576.6 97.0699 567.921 97.0699C559.242 97.0699 552.287 90.1153 552.287 81.4361V57.9854C552.287 53.7165 548.753 50.1685 544.47 50.1685C540.201 50.1685 536.653 53.7165 536.653 57.9854V81.4361C536.653 98.6531 550.704 112.704 567.921 112.704C585.138 112.704 599.188 98.6531 599.188 81.4361V57.9854C599.188 53.7165 595.64 50.1685 591.371 50.1685Z" fill="#4A98E2"/>
<path d="M668.551 81.4362V34.5348C668.551 30.2659 665.017 26.7179 660.734 26.7179C656.465 26.7179 652.917 30.2659 652.917 34.5348V54.3809C648.309 51.7094 642.98 50.1686 637.283 50.1686C620.066 50.1686 606.016 64.2192 606.016 81.4362C606.016 98.6531 620.066 112.704 637.283 112.704C653.779 112.704 667.335 99.8264 668.466 83.613C668.466 83.5282 668.48 83.4434 668.48 83.3586C668.523 82.7225 668.551 82.0864 668.551 81.4362ZM637.298 97.07C628.633 97.07 621.664 90.1153 621.664 81.4362C621.664 72.757 628.618 65.8024 637.298 65.8024C645.977 65.8024 652.931 72.757 652.931 81.4362C652.931 90.1153 645.963 97.07 637.298 97.07Z" fill="#4A98E2"/>
</svg>
