<svg width="672" height="500" viewBox="0 0 672 500" fill="none" xmlns="http://www.w3.org/2000/svg">
<path d="M671.033 439.392H0V439.728H671.033V439.392Z" fill="#DFDEDE"/>
<path d="M603.795 460.986H559.346V461.322H603.795V460.986Z" fill="#DFDEDE"/>
<path d="M444.519 464.637H432.856V464.972H444.519V464.637Z" fill="#DFDEDE"/>
<path d="M558.004 448.532H532.25V448.867H558.004V448.532Z" fill="#DFDEDE"/>
<path d="M128.368 450.787H70.4045V451.122H128.368V450.787Z" fill="#DFDEDE"/>
<path d="M148.821 450.787H140.326V451.122H148.821V450.787Z" fill="#DFDEDE"/>
<path d="M302.166 456.45H176.441V456.786H302.166V456.45Z" fill="#DFDEDE"/>
<path d="M318.07 379.536H58.9303C56.9002 379.533 54.9545 378.724 53.5203 377.287C52.086 375.85 51.2805 373.903 51.2805 371.873V7.59609C51.2982 5.57766 52.1115 3.64771 53.5438 2.22544C54.9762 0.80317 56.9118 0.00345768 58.9303 0H318.07C320.102 0 322.051 0.80737 323.488 2.2445C324.926 3.68163 325.733 5.63079 325.733 7.6632V371.873C325.733 373.905 324.926 375.855 323.488 377.292C322.051 378.729 320.102 379.536 318.07 379.536ZM58.9303 0.268414C56.9892 0.271969 55.1288 1.04556 53.7575 2.41938C52.3862 3.7932 51.616 5.65499 51.616 7.59609V371.873C51.616 373.814 52.3862 375.676 53.7575 377.05C55.1288 378.424 56.9892 379.197 58.9303 379.201H318.07C320.012 379.197 321.874 378.424 323.247 377.051C324.621 375.677 325.394 373.815 325.397 371.873V7.59609C325.394 5.65376 324.621 3.792 323.247 2.41856C321.874 1.04512 320.012 0.271962 318.07 0.268414H58.9303Z" fill="#DFDEDE"/>
<path d="M608.372 379.536H349.219C347.188 379.533 345.241 378.724 343.804 377.288C342.368 375.851 341.559 373.904 341.556 371.873V7.59609C341.577 5.57644 342.393 3.6465 343.828 2.2246C345.262 0.802701 347.199 0.00341997 349.219 0H608.372C610.388 0.00698478 612.32 0.808258 613.75 2.23015C615.179 3.65204 615.991 5.57998 616.008 7.59609V371.873C616.008 373.901 615.205 375.846 613.773 377.282C612.342 378.719 610.4 379.529 608.372 379.536ZM349.219 0.268414C347.277 0.271962 345.415 1.04512 344.042 2.41856C342.668 3.792 341.895 5.65376 341.891 7.59609V371.873C341.895 373.815 342.668 375.677 344.042 377.051C345.415 378.424 347.277 379.197 349.219 379.201H608.372C610.314 379.197 612.176 378.424 613.55 377.051C614.923 375.677 615.696 373.815 615.7 371.873V7.59609C615.696 5.65376 614.923 3.792 613.55 2.41856C612.176 1.04512 610.314 0.271962 608.372 0.268414H349.219Z" fill="#DFDEDE"/>
<path d="M114.908 390.622C114.908 390.085 113.096 337.369 104.52 329.034C96.1862 320.982 86.6173 328.726 86.2146 329.034L85.3557 328.014C85.4631 327.92 96.2667 319.103 105.487 328.014C114.452 336.724 116.223 388.327 116.223 390.528L114.908 390.622Z" fill="#999999"/>
<path d="M115.646 400.983C115.646 400.352 109.781 337.691 132.663 311.427L133.67 312.312C111.177 338.134 116.921 400.218 116.975 400.889L115.646 400.983Z" fill="#999999"/>
<path d="M114.787 394.353L113.445 394.259C113.445 393.547 117.914 323.035 101.138 307.588L102.038 306.608C119.31 322.472 114.989 391.427 114.787 394.353Z" fill="#999999"/>
<path d="M116.974 394.312H115.632C115.632 392.366 116.196 346.682 129.174 339.288C130.403 338.487 131.807 337.995 133.268 337.852C134.728 337.71 136.201 337.921 137.562 338.469C145.413 341.703 149.305 355.674 149.466 356.265L148.124 356.627C148.124 356.48 144.259 342.697 137.011 339.704C135.836 339.243 134.568 339.07 133.312 339.198C132.056 339.327 130.849 339.753 129.791 340.442C117.525 347.447 116.988 393.843 116.974 394.312Z" fill="#999999"/>
<path d="M111.928 394.339L110.586 394.272C110.586 393.91 112.546 358.157 102.896 345.569C100.561 342.509 98.0245 341.059 95.3404 341.247C89.0193 341.69 83.7181 350.937 83.6644 351.031L82.4968 350.373C82.725 349.971 88.2006 340.402 95.2465 339.905C98.4003 339.69 101.326 341.314 103.956 344.75C113.915 357.741 112.009 392.85 111.928 394.339Z" fill="#999999"/>
<path d="M114.075 399.211C113.82 395.735 107.768 314.111 118.41 299.737L119.484 300.529C109.15 314.513 115.35 398.258 115.458 399.104L114.075 399.211Z" fill="#999999"/>
<path d="M140.461 346.682C140.461 346.682 134.073 349.031 135.978 354.587C137.884 360.143 158.042 369.269 158.042 369.269C158.042 369.269 166.497 361.526 158.74 348.937C150.983 336.348 140.635 342.71 140.461 346.682Z" fill="#DFDEDE"/>
<path d="M112.733 336.107C112.733 336.107 119.537 335.825 119.913 341.677C120.289 347.528 105.151 363.74 105.151 363.74C105.151 363.74 94.414 359.835 96.6821 345.233C98.9502 330.631 111.042 332.51 112.733 336.107Z" fill="#DFDEDE"/>
<path d="M106.976 308.085C106.976 308.085 111.499 307.602 111.136 304.837C110.774 302.072 93.5286 294.986 83.3557 306.461C83.3557 306.461 89.8782 317.654 99.286 317.801C108.694 317.949 106.976 308.085 106.976 308.085Z" fill="#DFDEDE"/>
<path d="M115.417 301.388C115.417 301.388 111.311 303.374 110.156 300.838C109.002 298.301 119.886 283.149 134.595 287.524C134.595 287.524 134.985 300.462 127.066 305.562C119.148 310.661 115.417 301.388 115.417 301.388Z" fill="#DFDEDE"/>
<path d="M93.9448 344.455C93.9448 344.455 97.0718 341.932 93.6898 340.697C90.3078 339.462 73.7736 339.811 73.5588 356.211C73.5588 356.211 92.8309 359.405 95.2198 353.165C97.6087 346.924 93.9448 344.455 93.9448 344.455Z" fill="#DFDEDE"/>
<path d="M133.28 307.669C133.28 307.669 130.153 305.145 133.522 303.924C136.89 302.703 153.451 303.038 153.653 319.438C153.653 319.438 134.381 322.633 131.992 316.392C129.603 310.151 133.28 307.669 133.28 307.669Z" fill="#DFDEDE"/>
<path d="M123.094 320.888C123.094 320.888 122.812 317.815 125.295 319.022C127.778 320.23 136.394 329.531 127.456 338.362C127.456 338.362 115.377 329.45 117.578 324.807C119.779 320.163 123.094 320.888 123.094 320.888Z" fill="#DFDEDE"/>
<path d="M91.1803 325.25C91.1803 325.25 93.0458 322.807 90.308 322.498C87.5701 322.19 75.3037 325.478 78.1623 337.718C78.1623 337.718 93.0994 336.59 93.7436 331.504C94.3878 326.417 91.1803 325.25 91.1803 325.25Z" fill="#DFDEDE"/>
<path d="M141.655 439.755H90.3882L84.8589 383.63H147.184L141.655 439.755Z" fill="#DFDEDE"/>
<path d="M149.922 377.443H82.1211V389.83H149.922V377.443Z" fill="#999999"/>
<path d="M428.87 439.755H561.359V82.631H428.87L428.87 439.755Z" fill="#DFDEDE"/>
<path d="M519.165 255.154H549.657V121.9H519.165V255.154Z" fill="#F0F9FE"/>
<path d="M539.349 282.075C539.349 283.278 539.706 284.453 540.374 285.453C541.042 286.453 541.991 287.232 543.102 287.692C544.213 288.152 545.436 288.273 546.615 288.038C547.794 287.803 548.878 287.224 549.728 286.374C550.578 285.524 551.157 284.441 551.392 283.261C551.626 282.082 551.506 280.86 551.046 279.749C550.586 278.638 549.806 277.688 548.807 277.02C547.807 276.352 546.631 275.996 545.429 275.996C543.817 275.996 542.27 276.636 541.13 277.776C539.99 278.917 539.349 280.463 539.349 282.075Z" fill="#999999"/>
<path d="M469.696 70.1498H520.547V58.1517L469.696 58.1517V70.1498Z" fill="#DFDEDE"/>
<path d="M324.095 206.464V86.6036H229.761V206.464H324.095Z" fill="#999999"/>
<path d="M231.909 204.303H321.948V88.7507L231.909 88.7507V204.303Z" fill="#DFDEDE"/>
<path d="M255.1 142.93C258.589 146.795 259.462 139.132 259.462 139.132L269.447 122.128L271.608 139.575L264.119 193.499C264.119 193.499 257.234 195.539 256.805 196.693C256.375 197.847 268.574 198.156 269.89 196.693C271.205 195.23 268.548 193.499 268.548 193.499L277.942 148.915L278.103 149.627L287.39 193.499C287.39 193.499 284.787 195.23 286.048 196.693C287.31 198.156 299.563 197.847 299.12 196.693C298.677 195.539 291.819 193.499 291.819 193.499L284.424 139.575L286.585 122.128L296.597 139.132C296.597 139.132 297.469 146.795 300.958 142.93C304.448 139.065 298.274 135.602 298.274 135.602L287.43 116.813L281.445 114.746L280.103 113.082C280.103 113.082 287.779 99.2993 278.117 99.0309H277.821C268.158 99.2993 275.822 113.082 275.822 113.082L274.48 114.746L268.574 116.76L257.677 135.549C257.677 135.549 251.624 139.092 255.1 142.93Z" fill="#F0F9FE"/>
<path d="M278.17 98.9907V149.64L287.457 193.512C287.457 193.512 284.853 195.244 286.115 196.707C287.376 198.169 299.629 197.861 299.186 196.707C298.744 195.552 291.886 193.512 291.886 193.512L284.424 139.575L286.584 122.128L296.596 139.132C296.596 139.132 297.469 146.795 300.958 142.93C304.447 139.065 298.274 135.602 298.274 135.602L287.43 116.813L281.444 114.747L280.102 113.082C280.102 113.082 287.833 99.3128 278.17 98.9907Z" fill="#999999"/>
<path d="M245.799 107.07H258.267V102.212H245.799V107.07Z" fill="#999999"/>
<path d="M241.572 128.906H254.04V124.047H241.572V128.906Z" fill="#999999"/>
<path d="M300.743 151.855H313.211V146.996H300.743V151.855Z" fill="#999999"/>
<path d="M295.765 106.896H308.232V102.037H295.765V106.896Z" fill="#999999"/>
<path d="M245.799 159.907H258.267V155.049H245.799V159.907Z" fill="#999999"/>
<path d="M297.335 178.481H309.802V173.623H297.335V178.481Z" fill="#999999"/>
<path d="M239.559 183.34H252.026V178.481H239.559V183.34Z" fill="#999999"/>
<path d="M123.886 86.0533L123.886 207.041H214.999V86.0533H123.886Z" fill="#999999"/>
<path d="M212.852 88.1871H126.047V204.88H212.852V88.1871Z" fill="#DFDEDE"/>
<path d="M212.852 88.1871H126.047V117.189H212.852V88.1871Z" fill="#F0F9FE"/>
<path d="M212.852 144.031H126.047V175.918H212.852V144.031Z" fill="#F0F9FE"/>
<path d="M134.207 101.407C134.207 103.146 134.723 104.846 135.689 106.292C136.656 107.738 138.029 108.864 139.636 109.529C141.243 110.194 143.012 110.367 144.717 110.027C146.423 109.687 147.989 108.848 149.218 107.618C150.447 106.387 151.283 104.819 151.621 103.113C151.958 101.407 151.782 99.6392 151.115 98.0332C150.447 96.4272 149.319 95.0552 147.871 94.0909C146.424 93.1266 144.723 92.6133 142.984 92.616C141.83 92.616 140.688 92.8434 139.622 93.2854C138.556 93.7273 137.588 94.375 136.773 95.1915C135.958 96.0079 135.311 96.9771 134.871 98.0435C134.431 99.11 134.205 100.253 134.207 101.407Z" fill="#DFDEDE"/>
<path d="M199.471 139.213C204.326 139.213 208.262 135.277 208.262 130.422C208.262 125.567 204.326 121.631 199.471 121.631C194.616 121.631 190.681 125.567 190.681 130.422C190.681 135.277 194.616 139.213 199.471 139.213Z" fill="#F0F9FE"/>
<path d="M141.937 170.201C146.792 170.201 150.727 166.265 150.727 161.41C150.727 156.555 146.792 152.62 141.937 152.62C137.082 152.62 133.146 156.555 133.146 161.41C133.146 166.265 137.082 170.201 141.937 170.201Z" fill="#DFDEDE"/>
<path d="M198.438 199.216C203.293 199.216 207.229 195.281 207.229 190.426C207.229 185.571 203.293 181.635 198.438 181.635C193.583 181.635 189.647 185.571 189.647 190.426C189.647 195.281 193.583 199.216 198.438 199.216Z" fill="#F0F9FE"/>
<path d="M335.516 500C479.228 500 595.73 493.198 595.73 484.808C595.73 476.417 479.228 469.616 335.516 469.616C191.805 469.616 75.3032 476.417 75.3032 484.808C75.3032 493.198 191.805 500 335.516 500Z" fill="#DFDEDE"/>
<path d="M548.18 467.334C548.18 467.334 555.253 433.944 542.383 415.853C529.512 397.762 554.005 415.638 556.823 432.575C556.823 432.575 561.051 402.298 548.569 380.986C536.088 359.674 559.44 377.174 561.426 399.131C561.426 399.131 565.251 372.115 559.521 356.936C553.79 341.757 563.762 351.568 567.573 361.029C571.385 370.491 566.365 394.111 566.365 394.111C566.365 394.111 576.377 350.534 585.866 354.01C595.354 357.486 571.693 386.019 568.419 400.875C568.419 400.875 579.598 380.892 588.08 385.052C596.562 389.213 574.941 391.279 565.05 421.073L561.574 435.044C561.574 435.044 571.854 415.329 578.578 421.543C585.302 427.757 558.662 438.507 552.461 468.381L548.18 467.334Z" fill="#4A98E2"/>
<path d="M549.562 469.253C549.562 469.253 551.052 427.153 571.854 409.33C592.656 391.508 557.991 405.613 549.562 425.059C549.562 425.059 553.589 387.481 574.834 365.74C596.078 343.998 562.943 357.929 554.018 383.63C554.018 383.63 557.494 350.078 568.888 333.664C580.282 317.251 565.412 325.907 557.991 336.161C550.569 346.414 549.562 376.141 549.562 376.141C549.562 376.141 550.556 320.969 538.168 322.297C525.781 323.626 545.603 364.868 545.107 383.63C545.107 383.63 537.672 356.359 526.318 358.828C514.964 361.298 540.195 370.196 543.161 408.834V426.603C543.161 426.603 536.692 399.936 526.774 405.304C516.856 410.672 545.563 431.555 544.114 469.2L549.562 469.253Z" fill="#4A98E2"/>
<path opacity="0.2" d="M549.562 469.253C549.562 469.253 551.052 427.153 571.854 409.33C592.656 391.508 557.991 405.613 549.562 425.059C549.562 425.059 553.589 387.481 574.834 365.74C596.078 343.998 562.943 357.929 554.018 383.63C554.018 383.63 557.494 350.078 568.888 333.664C580.282 317.251 565.412 325.907 557.991 336.161C550.569 346.414 549.562 376.141 549.562 376.141C549.562 376.141 550.556 320.969 538.168 322.297C525.781 323.626 545.603 364.868 545.107 383.63C545.107 383.63 537.672 356.359 526.318 358.828C514.964 361.298 540.195 370.196 543.161 408.834V426.603C543.161 426.603 536.692 399.936 526.774 405.304C516.856 410.672 545.563 431.555 544.114 469.2L549.562 469.253Z" fill="white"/>
<path d="M562.997 488.163H531.338C527.422 488.163 523.667 486.608 520.899 483.839C518.13 481.071 516.575 477.316 516.575 473.4V466.797H577.76V473.4C577.76 477.316 576.204 481.071 573.436 483.839C570.667 486.608 566.912 488.163 562.997 488.163Z" fill="#15233E"/>
<path d="M585.825 463.281V467.938C585.825 469.437 585.23 470.874 584.17 471.933C583.111 472.993 581.674 473.588 580.175 473.588H514.28C513.537 473.59 512.802 473.445 512.115 473.162C511.429 472.879 510.806 472.462 510.281 471.937C509.756 471.412 509.339 470.789 509.056 470.103C508.773 469.416 508.628 468.681 508.63 467.938V463.281H585.825Z" fill="#15233E"/>
<path opacity="0.2" d="M585.825 463.281V467.938C585.825 469.437 585.23 470.874 584.17 471.933C583.111 472.993 581.674 473.588 580.175 473.588H514.28C513.537 473.59 512.802 473.445 512.115 473.162C511.429 472.879 510.806 472.462 510.281 471.937C509.756 471.412 509.339 470.789 509.056 470.103C508.773 469.416 508.628 468.681 508.63 467.938V463.281H585.825Z" fill="white"/>
<path d="M394.379 121.524C385.718 121.522 377.223 123.904 369.826 128.411C362.43 132.918 356.417 139.374 352.448 147.073C348.479 154.771 346.706 163.414 347.325 172.054C347.944 180.693 350.93 188.995 355.956 196.049L342.133 212.154L361.123 202.142C366.621 207.607 373.38 211.632 380.804 213.863C388.228 216.093 396.087 216.46 403.686 214.931C411.286 213.401 418.391 210.022 424.374 205.094C430.357 200.165 435.033 193.837 437.988 186.671C440.944 179.505 442.088 171.721 441.32 164.008C440.551 156.294 437.894 148.889 433.582 142.447C429.271 136.005 423.438 130.725 416.601 127.073C409.763 123.421 402.131 121.511 394.379 121.511V121.524Z" fill="#4A98E2"/>
<path opacity="0.7" d="M394.379 121.524C385.718 121.522 377.223 123.904 369.826 128.411C362.43 132.918 356.417 139.374 352.448 147.073C348.479 154.771 346.706 163.414 347.325 172.054C347.944 180.693 350.93 188.995 355.956 196.049L342.133 212.154L361.123 202.142C366.621 207.607 373.38 211.632 380.804 213.863C388.228 216.093 396.087 216.46 403.686 214.931C411.286 213.401 418.391 210.022 424.374 205.094C430.357 200.165 435.033 193.837 437.988 186.671C440.944 179.505 442.088 171.721 441.32 164.008C440.551 156.294 437.894 148.889 433.582 142.447C429.271 136.005 423.438 130.725 416.601 127.073C409.763 123.421 402.131 121.511 394.379 121.511V121.524Z" fill="white"/>
<path d="M385.173 150.312L388.676 156.445C388.545 156.738 388.324 156.983 388.045 157.143C387.746 157.281 387.407 157.305 387.092 157.21L384.408 150.687L385.173 150.312Z" fill="#4A98E2"/>
<path opacity="0.1" d="M385.173 150.312L388.676 156.445C388.545 156.738 388.324 156.983 388.045 157.143C387.746 157.281 387.407 157.305 387.092 157.21L384.408 150.687L385.173 150.312Z" fill="white"/>
<path d="M383.737 150.768C383.885 151.063 384.435 151.077 384.972 150.768C385.509 150.459 385.831 150.057 385.683 149.761C385.535 149.466 384.999 149.453 384.462 149.761C383.925 150.07 383.603 150.473 383.737 150.768Z" fill="#4A98E2"/>
<path opacity="0.1" d="M383.737 150.768C383.885 151.063 384.435 151.077 384.972 150.768C385.509 150.459 385.831 150.057 385.683 149.761C385.535 149.466 384.999 149.453 384.462 149.761C383.925 150.07 383.603 150.473 383.737 150.768Z" fill="white"/>
<path d="M375.188 160.337L381.898 162.659C382.001 162.968 382.001 163.302 381.898 163.611C381.763 163.909 381.525 164.148 381.227 164.282L374.919 161.115L375.188 160.337Z" fill="#4A98E2"/>
<path opacity="0.1" d="M375.188 160.337L381.898 162.659C382.001 162.968 382.001 163.302 381.898 163.611C381.763 163.909 381.525 164.148 381.227 164.282L374.919 161.115L375.188 160.337Z" fill="white"/>
<path d="M374.436 161.665C374.731 161.799 375.174 161.451 375.402 160.9C375.631 160.35 375.577 159.8 375.282 159.666C374.986 159.531 374.557 159.894 374.315 160.444C374.074 160.994 374.154 161.544 374.436 161.665Z" fill="#4A98E2"/>
<path opacity="0.1" d="M374.436 161.665C374.731 161.799 375.174 161.451 375.402 160.9C375.631 160.35 375.577 159.8 375.282 159.666C374.986 159.531 374.557 159.894 374.315 160.444C374.074 160.994 374.154 161.544 374.436 161.665Z" fill="white"/>
<path d="M377.12 181.058L382.838 176.925C383.148 177.023 383.417 177.221 383.603 177.488C383.778 177.763 383.841 178.095 383.777 178.414L377.563 181.769L377.12 181.058Z" fill="#4A98E2"/>
<path opacity="0.1" d="M377.12 181.058L382.838 176.925C383.148 177.023 383.417 177.221 383.603 177.488C383.778 177.763 383.841 178.095 383.777 178.414L377.563 181.769L377.12 181.058Z" fill="white"/>
<path d="M377.765 182.414C378.047 182.239 378.006 181.689 377.698 181.192C377.389 180.696 376.892 180.414 376.624 180.575C376.356 180.736 376.382 181.3 376.691 181.81C377 182.32 377.496 182.588 377.765 182.414Z" fill="#4A98E2"/>
<path opacity="0.1" d="M377.765 182.414C378.047 182.239 378.006 181.689 377.698 181.192C377.389 180.696 376.892 180.414 376.624 180.575C376.356 180.736 376.382 181.3 376.691 181.81C377 182.32 377.496 182.588 377.765 182.414Z" fill="white"/>
<path d="M386.609 187.97L388.515 181.179C388.819 181.076 389.149 181.076 389.454 181.179C389.763 181.289 390.021 181.509 390.179 181.796L387.414 188.292L386.609 187.97Z" fill="#4A98E2"/>
<path opacity="0.1" d="M386.609 187.97L388.515 181.179C388.819 181.076 389.149 181.076 389.454 181.179C389.763 181.289 390.021 181.509 390.179 181.796L387.414 188.292L386.609 187.97Z" fill="white"/>
<path d="M387.978 188.614C388.085 188.319 387.723 187.903 387.159 187.701C386.595 187.5 386.045 187.594 385.938 187.903C385.83 188.211 386.206 188.614 386.77 188.815C387.333 189.017 387.857 188.923 387.978 188.614Z" fill="#4A98E2"/>
<path opacity="0.1" d="M387.978 188.614C388.085 188.319 387.723 187.903 387.159 187.701C386.595 187.5 386.045 187.594 385.938 187.903C385.83 188.211 386.206 188.614 386.77 188.815C387.333 189.017 387.857 188.923 387.978 188.614Z" fill="white"/>
<path d="M400.311 186.413L396.942 180.213C397.082 179.92 397.313 179.679 397.6 179.528C397.903 179.415 398.237 179.415 398.539 179.528L401.089 186.118L400.311 186.413Z" fill="#4A98E2"/>
<path opacity="0.1" d="M400.311 186.413L396.942 180.213C397.082 179.92 397.313 179.679 397.6 179.528C397.903 179.415 398.237 179.415 398.539 179.528L401.089 186.118L400.311 186.413Z" fill="white"/>
<path d="M401.748 185.917C401.613 185.621 401.063 185.595 400.526 185.85C399.989 186.105 399.654 186.534 399.788 186.829C399.922 187.125 400.473 187.165 401.009 186.91C401.546 186.655 401.882 186.212 401.748 185.917Z" fill="#4A98E2"/>
<path opacity="0.1" d="M401.748 185.917C401.613 185.621 401.063 185.595 400.526 185.85C399.989 186.105 399.654 186.534 399.788 186.829C399.922 187.125 400.473 187.165 401.009 186.91C401.546 186.655 401.882 186.212 401.748 185.917Z" fill="white"/>
<path d="M415.785 166.309L408.914 167.933C408.664 167.721 408.49 167.433 408.417 167.114C408.369 166.791 408.441 166.462 408.618 166.188L415.651 165.477L415.785 166.309Z" fill="#4A98E2"/>
<path opacity="0.1" d="M415.785 166.309L408.914 167.933C408.664 167.721 408.49 167.433 408.417 167.114C408.369 166.791 408.441 166.462 408.618 166.188L415.651 165.477L415.785 166.309Z" fill="white"/>
<path d="M415.691 164.792C415.369 164.792 415.195 165.369 415.289 165.96C415.383 166.55 415.732 166.993 416.054 166.94C416.376 166.886 416.55 166.363 416.443 165.772C416.336 165.182 416.04 164.739 415.691 164.792Z" fill="#4A98E2"/>
<path opacity="0.1" d="M415.691 164.792C415.369 164.792 415.195 165.369 415.289 165.96C415.383 166.55 415.732 166.993 416.054 166.94C416.376 166.886 416.55 166.363 416.443 165.772C416.336 165.182 416.04 164.739 415.691 164.792Z" fill="white"/>
<path d="M402.177 151.492L399.359 157.975C399.039 158.041 398.706 158.009 398.406 157.881C398.118 157.723 397.899 157.465 397.788 157.156L401.425 151.103L402.177 151.492Z" fill="#4A98E2"/>
<path opacity="0.1" d="M402.177 151.492L399.359 157.975C399.039 158.041 398.706 158.009 398.406 157.881C398.118 157.723 397.899 157.465 397.788 157.156L401.425 151.103L402.177 151.492Z" fill="white"/>
<path d="M400.902 150.674C400.754 150.955 401.063 151.412 401.599 151.694C402.136 151.975 402.687 151.949 402.834 151.694C402.982 151.439 402.673 150.942 402.136 150.674C401.599 150.405 401.049 150.378 400.902 150.674Z" fill="#4A98E2"/>
<path opacity="0.1" d="M400.902 150.674C400.754 150.955 401.063 151.412 401.599 151.694C402.136 151.975 402.687 151.949 402.834 151.694C402.982 151.439 402.673 150.942 402.136 150.674C401.599 150.405 401.049 150.378 400.902 150.674Z" fill="white"/>
<path d="M409.893 178.951L403.465 176.039C403.399 175.722 403.436 175.393 403.572 175.1C403.73 174.812 403.988 174.592 404.297 174.482L410.296 178.2L409.893 178.951Z" fill="#4A98E2"/>
<path opacity="0.1" d="M409.893 178.951L403.465 176.039C403.399 175.722 403.436 175.393 403.572 175.1C403.73 174.812 403.988 174.592 404.297 174.482L410.296 178.2L409.893 178.951Z" fill="white"/>
<path d="M410.739 177.69C410.458 177.542 410.001 177.837 409.719 178.374C409.438 178.911 409.438 179.448 409.719 179.595C410.001 179.743 410.471 179.448 410.753 178.924C411.035 178.401 411.035 177.837 410.739 177.69Z" fill="#4A98E2"/>
<path opacity="0.1" d="M410.739 177.69C410.458 177.542 410.001 177.837 409.719 178.374C409.438 178.911 409.438 179.448 409.719 179.595C410.001 179.743 410.471 179.448 410.753 178.924C411.035 178.401 411.035 177.837 410.739 177.69Z" fill="white"/>
<path d="M393.574 185.447C402.683 185.447 410.068 178.062 410.068 168.953C410.068 159.843 402.683 152.459 393.574 152.459C384.465 152.459 377.08 159.843 377.08 168.953C377.08 178.062 384.465 185.447 393.574 185.447Z" fill="#4A98E2"/>
<path opacity="0.2" d="M393.574 185.447C402.683 185.447 410.068 178.062 410.068 168.953C410.068 159.843 402.683 152.459 393.574 152.459C384.465 152.459 377.08 159.843 377.08 168.953C377.08 178.062 384.465 185.447 393.574 185.447Z" fill="white"/>
<path d="M393.99 146.782L394.46 153.828C394.209 154.035 393.899 154.158 393.574 154.177C393.246 154.173 392.931 154.048 392.688 153.828L393.145 146.782H393.99Z" fill="#4A98E2"/>
<path opacity="0.4" d="M393.99 146.782L394.46 153.828C394.209 154.035 393.899 154.158 393.574 154.177C393.246 154.173 392.931 154.048 392.688 153.828L393.145 146.782H393.99Z" fill="white"/>
<path d="M392.487 146.634C392.487 146.956 392.97 147.211 393.574 147.211C394.178 147.211 394.661 146.956 394.661 146.634C394.661 146.312 394.165 146.044 393.574 146.044C392.984 146.044 392.487 146.285 392.487 146.634Z" fill="#4A98E2"/>
<path opacity="0.2" d="M392.487 146.634C392.487 146.956 392.97 147.211 393.574 147.211C394.178 147.211 394.661 146.956 394.661 146.634C394.661 146.312 394.165 146.044 393.574 146.044C392.984 146.044 392.487 146.285 392.487 146.634Z" fill="white"/>
<path d="M381.052 154.7L386.595 159.075C386.588 159.398 386.475 159.709 386.273 159.961C386.049 160.205 385.743 160.358 385.414 160.39L380.489 155.331L381.052 154.7Z" fill="#4A98E2"/>
<path opacity="0.4" d="M381.052 154.7L386.595 159.075C386.588 159.398 386.475 159.709 386.273 159.961C386.049 160.205 385.743 160.358 385.414 160.39L380.489 155.331L381.052 154.7Z" fill="white"/>
<path d="M379.939 155.68C380.18 155.894 380.69 155.68 381.093 155.264C381.495 154.848 381.63 154.284 381.388 154.069C381.146 153.854 380.623 154.069 380.22 154.485C379.818 154.901 379.697 155.505 379.939 155.68Z" fill="#4A98E2"/>
<path opacity="0.2" d="M379.939 155.68C380.18 155.894 380.69 155.68 381.093 155.264C381.495 154.848 381.63 154.284 381.388 154.069C381.146 153.854 380.623 154.069 380.22 154.485C379.818 154.901 379.697 155.505 379.939 155.68Z" fill="white"/>
<path d="M409.693 153.774L404.727 158.793C404.409 158.745 404.114 158.6 403.881 158.377C403.667 158.127 403.553 157.807 403.559 157.478L409.129 153.143L409.693 153.774Z" fill="#4A98E2"/>
<path opacity="0.4" d="M409.693 153.774L404.727 158.793C404.409 158.745 404.114 158.6 403.881 158.377C403.667 158.127 403.553 157.807 403.559 157.478L409.129 153.143L409.693 153.774Z" fill="white"/>
<path d="M408.807 152.553C408.565 152.767 408.686 153.304 409.089 153.747C409.491 154.19 410.001 154.391 410.243 154.177C410.484 153.962 410.364 153.412 409.961 152.969C409.558 152.526 409.048 152.338 408.807 152.553Z" fill="#4A98E2"/>
<path opacity="0.2" d="M408.807 152.553C408.565 152.767 408.686 153.304 409.089 153.747C409.491 154.19 410.001 154.391 410.243 154.177C410.484 153.962 410.364 153.412 409.961 152.969C409.558 152.526 409.048 152.338 408.807 152.553Z" fill="white"/>
<path d="M411.035 162.095L405.935 164.779C405.67 164.604 405.461 164.357 405.331 164.068C405.232 163.767 405.232 163.442 405.331 163.142L410.672 161.316L411.035 162.095Z" fill="#4A98E2"/>
<path opacity="0.4" d="M411.035 162.095L405.935 164.779C405.67 164.604 405.461 164.357 405.331 164.068C405.232 163.767 405.232 163.442 405.331 163.142L410.672 161.316L411.035 162.095Z" fill="white"/>
<path d="M410.39 160.739C410.041 160.887 409.947 161.451 410.175 162.001C410.404 162.551 410.873 162.887 411.222 162.739C411.571 162.591 411.665 162.028 411.423 161.478C411.182 160.927 410.672 160.592 410.39 160.739Z" fill="#4A98E2"/>
<path opacity="0.2" d="M410.39 160.739C410.041 160.887 409.947 161.451 410.175 162.001C410.404 162.551 410.873 162.887 411.222 162.739C411.571 162.591 411.665 162.028 411.423 161.478C411.182 160.927 410.672 160.592 410.39 160.739Z" fill="white"/>
<path d="M399.815 157.894L399.291 160.337C399.291 160.337 398.687 160.753 398.244 160.565C398.082 160.47 397.946 160.337 397.845 160.178C397.745 160.02 397.684 159.839 397.667 159.652L399.009 157.572L399.815 157.894Z" fill="#4A98E2"/>
<path opacity="0.5" d="M399.815 157.894L399.291 160.337C399.291 160.337 398.687 160.753 398.244 160.565C398.082 160.47 397.946 160.337 397.845 160.178C397.745 160.02 397.684 159.839 397.667 159.652L399.009 157.572L399.815 157.894Z" fill="white"/>
<path d="M398.204 157.84C398.122 158.1 398.14 158.38 398.254 158.627C398.369 158.874 398.572 159.068 398.823 159.173C399.074 159.277 399.355 159.284 399.611 159.191C399.866 159.099 400.078 158.914 400.204 158.673C400.286 158.413 400.268 158.133 400.154 157.886C400.039 157.639 399.836 157.445 399.585 157.34C399.334 157.236 399.053 157.229 398.797 157.322C398.542 157.414 398.33 157.599 398.204 157.84Z" fill="#4A98E2"/>
<path opacity="0.3" d="M398.204 157.84C398.122 158.1 398.14 158.38 398.254 158.627C398.369 158.874 398.572 159.068 398.823 159.173C399.074 159.277 399.355 159.284 399.611 159.191C399.866 159.099 400.078 158.914 400.204 158.673C400.286 158.413 400.268 158.133 400.154 157.886C400.039 157.639 399.836 157.445 399.585 157.34C399.334 157.236 399.053 157.229 398.797 157.322C398.542 157.414 398.33 157.599 398.204 157.84Z" fill="white"/>
<path d="M390.541 156.874L391.789 159.035C391.789 159.035 391.615 159.733 391.159 159.894C390.976 159.933 390.788 159.928 390.608 159.879C390.428 159.83 390.263 159.738 390.125 159.612L389.75 157.156L390.541 156.874Z" fill="#4A98E2"/>
<path opacity="0.5" d="M390.541 156.874L391.789 159.035C391.789 159.035 391.615 159.733 391.159 159.894C390.976 159.933 390.788 159.928 390.608 159.879C390.428 159.83 390.263 159.738 390.125 159.612L389.75 157.156L390.541 156.874Z" fill="white"/>
<path d="M389.36 157.908C389.484 158.141 389.687 158.323 389.933 158.419C390.179 158.515 390.451 158.52 390.7 158.432C390.949 158.344 391.158 158.169 391.289 157.94C391.42 157.711 391.464 157.442 391.414 157.183C391.29 156.949 391.087 156.768 390.841 156.672C390.595 156.575 390.323 156.571 390.074 156.659C389.825 156.747 389.616 156.921 389.485 157.15C389.354 157.38 389.31 157.648 389.36 157.908Z" fill="#4A98E2"/>
<path opacity="0.3" d="M389.36 157.908C389.484 158.141 389.687 158.323 389.933 158.419C390.179 158.515 390.451 158.52 390.7 158.432C390.949 158.344 391.158 158.169 391.289 157.94C391.42 157.711 391.464 157.442 391.414 157.183C391.29 156.949 391.087 156.768 390.841 156.672C390.595 156.575 390.323 156.571 390.074 156.659C389.825 156.747 389.616 156.921 389.485 157.15C389.354 157.38 389.31 157.648 389.36 157.908Z" fill="white"/>
<path d="M383.401 163.625L385.83 164.162C385.83 164.162 386.246 164.779 386.045 165.222C385.844 165.665 385.146 165.799 385.146 165.799L383.065 164.457L383.401 163.625Z" fill="#4A98E2"/>
<path opacity="0.5" d="M383.401 163.625L385.83 164.162C385.83 164.162 386.246 164.779 386.045 165.222C385.844 165.665 385.146 165.799 385.146 165.799L383.065 164.457L383.401 163.625Z" fill="white"/>
<path d="M383.334 165.235C383.525 165.348 383.746 165.4 383.968 165.383C384.189 165.366 384.4 165.282 384.572 165.142C384.745 165.002 384.87 164.813 384.931 164.599C384.992 164.386 384.987 164.159 384.916 163.949C384.844 163.739 384.71 163.556 384.531 163.424C384.353 163.292 384.138 163.218 383.916 163.212C383.694 163.206 383.476 163.268 383.29 163.39C383.105 163.512 382.961 163.687 382.878 163.893C382.762 164.132 382.744 164.407 382.83 164.658C382.915 164.91 383.096 165.117 383.334 165.235Z" fill="#4A98E2"/>
<path opacity="0.3" d="M383.334 165.235C383.525 165.348 383.746 165.4 383.968 165.383C384.189 165.366 384.4 165.282 384.572 165.142C384.745 165.002 384.87 164.813 384.931 164.599C384.992 164.386 384.987 164.159 384.916 163.949C384.844 163.739 384.71 163.556 384.531 163.424C384.353 163.292 384.138 163.218 383.916 163.212C383.694 163.206 383.476 163.268 383.29 163.39C383.105 163.512 382.961 163.687 382.878 163.893C382.762 164.132 382.744 164.407 382.83 164.658C382.915 164.91 383.096 165.117 383.334 165.235Z" fill="white"/>
<path d="M385.334 176.079L386.676 173.972C386.676 173.972 387.388 173.798 387.737 174.133C387.855 174.277 387.938 174.447 387.978 174.629C388.017 174.811 388.013 175 387.965 175.18L385.952 176.656L385.334 176.079Z" fill="#4A98E2"/>
<path opacity="0.5" d="M385.334 176.079L386.676 173.972C386.676 173.972 387.388 173.798 387.737 174.133C387.855 174.277 387.938 174.447 387.978 174.629C388.017 174.811 388.013 175 387.965 175.18L385.952 176.656L385.334 176.079Z" fill="white"/>
<path d="M386.824 176.696C386.992 176.549 387.111 176.354 387.166 176.137C387.221 175.919 387.208 175.691 387.129 175.481C387.05 175.272 386.909 175.091 386.725 174.964C386.541 174.836 386.323 174.768 386.099 174.768C385.875 174.768 385.656 174.836 385.472 174.964C385.288 175.091 385.147 175.272 385.069 175.481C384.99 175.691 384.977 175.919 385.031 176.137C385.086 176.354 385.206 176.549 385.374 176.696C385.567 176.887 385.828 176.993 386.099 176.993C386.37 176.993 386.63 176.887 386.824 176.696Z" fill="#4A98E2"/>
<path opacity="0.3" d="M386.824 176.696C386.992 176.549 387.111 176.354 387.166 176.137C387.221 175.919 387.208 175.691 387.129 175.481C387.05 175.272 386.909 175.091 386.725 174.964C386.541 174.836 386.323 174.768 386.099 174.768C385.875 174.768 385.656 174.836 385.472 174.964C385.288 175.091 385.147 175.272 385.069 175.481C384.99 175.691 384.977 175.919 385.031 176.137C385.086 176.354 385.206 176.549 385.374 176.696C385.567 176.887 385.828 176.993 386.099 176.993C386.37 176.993 386.63 176.887 386.824 176.696Z" fill="white"/>
<path d="M395.104 178.495L394.057 176.227C394.057 176.227 394.299 175.529 394.769 175.422C394.953 175.401 395.14 175.422 395.314 175.485C395.489 175.548 395.647 175.65 395.775 175.784L395.936 178.28L395.104 178.495Z" fill="#4A98E2"/>
<path opacity="0.5" d="M395.104 178.495L394.057 176.227C394.057 176.227 394.299 175.529 394.769 175.422C394.953 175.401 395.14 175.422 395.314 175.485C395.489 175.548 395.647 175.65 395.775 175.784L395.936 178.28L395.104 178.495Z" fill="white"/>
<path d="M396.433 177.622C396.392 177.488 396.324 177.363 396.234 177.256C396.143 177.149 396.032 177.061 395.906 176.998C395.78 176.935 395.643 176.899 395.503 176.891C395.363 176.883 395.223 176.903 395.091 176.951C394.827 177.007 394.594 177.162 394.441 177.384C394.289 177.607 394.228 177.88 394.272 178.146C394.353 178.412 394.534 178.637 394.776 178.774C395.018 178.911 395.303 178.95 395.574 178.883C395.844 178.816 396.078 178.648 396.228 178.413C396.377 178.179 396.432 177.896 396.379 177.622H396.433Z" fill="#4A98E2"/>
<path opacity="0.3" d="M396.433 177.622C396.392 177.488 396.324 177.363 396.234 177.256C396.143 177.149 396.032 177.061 395.906 176.998C395.78 176.935 395.643 176.899 395.503 176.891C395.363 176.883 395.223 176.903 395.091 176.951C394.827 177.007 394.594 177.162 394.441 177.384C394.289 177.607 394.228 177.88 394.272 178.146C394.353 178.412 394.534 178.637 394.776 178.774C395.018 178.911 395.303 178.95 395.574 178.883C395.844 178.816 396.078 178.648 396.228 178.413C396.377 178.179 396.432 177.896 396.379 177.622H396.433Z" fill="white"/>
<path d="M401.922 175.193L399.6 174.254C399.526 174.085 399.488 173.902 399.488 173.717C399.488 173.532 399.526 173.35 399.6 173.18C399.722 173.039 399.875 172.928 400.048 172.855C400.22 172.783 400.407 172.752 400.593 172.764L402.418 174.482L401.922 175.193Z" fill="#4A98E2"/>
<path opacity="0.5" d="M401.922 175.193L399.6 174.254C399.526 174.085 399.488 173.902 399.488 173.717C399.488 173.532 399.526 173.35 399.6 173.18C399.722 173.039 399.875 172.928 400.048 172.855C400.22 172.783 400.407 172.752 400.593 172.764L402.418 174.482L401.922 175.193Z" fill="white"/>
<path d="M402.244 173.61C402.073 173.471 401.864 173.388 401.645 173.371C401.426 173.353 401.206 173.403 401.016 173.513C400.826 173.623 400.673 173.788 400.578 173.987C400.484 174.185 400.452 174.408 400.486 174.625C400.521 174.842 400.62 175.044 400.772 175.203C400.923 175.363 401.119 175.472 401.334 175.518C401.55 175.563 401.773 175.543 401.977 175.458C402.18 175.374 402.352 175.23 402.472 175.046C402.552 174.937 402.61 174.813 402.642 174.681C402.674 174.55 402.68 174.413 402.659 174.28C402.638 174.146 402.59 174.018 402.519 173.903C402.447 173.788 402.354 173.688 402.244 173.61Z" fill="#4A98E2"/>
<path opacity="0.3" d="M402.244 173.61C402.073 173.471 401.864 173.388 401.645 173.371C401.426 173.353 401.206 173.403 401.016 173.513C400.826 173.623 400.673 173.788 400.578 173.987C400.484 174.185 400.452 174.408 400.486 174.625C400.521 174.842 400.62 175.044 400.772 175.203C400.923 175.363 401.119 175.472 401.334 175.518C401.55 175.563 401.773 175.543 401.977 175.458C402.18 175.374 402.352 175.23 402.472 175.046C402.552 174.937 402.61 174.813 402.642 174.681C402.674 174.55 402.68 174.413 402.659 174.28C402.638 174.146 402.59 174.018 402.519 173.903C402.447 173.788 402.354 173.688 402.244 173.61Z" fill="white"/>
<path d="M403.827 168.08L401.398 168.631C401.398 168.631 400.768 168.255 400.754 167.772C400.77 167.586 400.83 167.407 400.931 167.25C401.032 167.094 401.169 166.964 401.331 166.873L403.801 167.222L403.827 168.08Z" fill="#4A98E2"/>
<path opacity="0.5" d="M403.827 168.08L401.398 168.631C401.398 168.631 400.768 168.255 400.754 167.772C400.77 167.586 400.83 167.407 400.931 167.25C401.032 167.094 401.169 166.964 401.331 166.873L403.801 167.222L403.827 168.08Z" fill="white"/>
<path d="M403.196 166.591C402.927 166.621 402.68 166.756 402.509 166.967C402.338 167.178 402.257 167.448 402.284 167.718C402.315 167.901 402.398 168.072 402.524 168.209C402.649 168.346 402.812 168.444 402.992 168.491C403.171 168.538 403.361 168.532 403.538 168.474C403.714 168.416 403.87 168.309 403.987 168.164C404.104 168.02 404.177 167.844 404.197 167.66C404.217 167.475 404.183 167.288 404.1 167.122C404.016 166.956 403.887 166.818 403.726 166.723C403.566 166.629 403.382 166.583 403.196 166.591Z" fill="#4A98E2"/>
<path opacity="0.3" d="M403.196 166.591C402.927 166.621 402.68 166.756 402.509 166.967C402.338 167.178 402.257 167.448 402.284 167.718C402.315 167.901 402.398 168.072 402.524 168.209C402.649 168.346 402.812 168.444 402.992 168.491C403.171 168.538 403.361 168.532 403.538 168.474C403.714 168.416 403.87 168.309 403.987 168.164C404.104 168.02 404.177 167.844 404.197 167.66C404.217 167.475 404.183 167.288 404.1 167.122C404.016 166.956 403.887 166.818 403.726 166.723C403.566 166.629 403.382 166.583 403.196 166.591Z" fill="white"/>
<path d="M373.094 165.96L380.127 166.51C380.301 166.786 380.381 167.111 380.355 167.436C380.302 167.757 380.136 168.048 379.885 168.255L372.973 166.805L373.094 165.96Z" fill="#4A98E2"/>
<path opacity="0.4" d="M373.094 165.96L380.127 166.51C380.301 166.786 380.381 167.111 380.355 167.436C380.302 167.757 380.136 168.048 379.885 168.255L372.973 166.805L373.094 165.96Z" fill="white"/>
<path d="M372.732 167.436C373.04 167.436 373.376 167.034 373.456 166.443C373.537 165.853 373.349 165.329 373.027 165.289C372.705 165.249 372.383 165.678 372.302 166.282C372.222 166.886 372.409 167.382 372.732 167.436Z" fill="#4A98E2"/>
<path opacity="0.2" d="M372.732 167.436C373.04 167.436 373.376 167.034 373.456 166.443C373.537 165.853 373.349 165.329 373.027 165.289C372.705 165.249 372.383 165.678 372.302 166.282C372.222 166.886 372.409 167.382 372.732 167.436Z" fill="white"/>
<path d="M375.644 174.885L382.14 172.133C382.42 172.294 382.638 172.544 382.757 172.845C382.882 173.15 382.882 173.492 382.757 173.798L375.953 175.676L375.644 174.885Z" fill="#4A98E2"/>
<path opacity="0.4" d="M375.644 174.885L382.14 172.133C382.42 172.294 382.638 172.544 382.757 172.845C382.882 173.15 382.882 173.492 382.757 173.798L375.953 175.676L375.644 174.885Z" fill="white"/>
<path d="M375.993 176.347C376.301 176.253 376.382 175.703 376.194 175.14C376.006 174.576 375.577 174.2 375.281 174.308C374.986 174.415 374.879 174.965 375.08 175.529C375.281 176.092 375.684 176.455 375.993 176.347Z" fill="#4A98E2"/>
<path opacity="0.2" d="M375.993 176.347C376.301 176.253 376.382 175.703 376.194 175.14C376.006 174.576 375.577 174.2 375.281 174.308C374.986 174.415 374.879 174.965 375.08 175.529C375.281 176.092 375.684 176.455 375.993 176.347Z" fill="white"/>
<path d="M394.299 190.641L393.091 183.689C393.312 183.454 393.605 183.298 393.923 183.246C394.248 183.217 394.572 183.308 394.836 183.501L395.131 190.56L394.299 190.641Z" fill="#4A98E2"/>
<path opacity="0.4" d="M394.299 190.641L393.091 183.689C393.312 183.454 393.605 183.298 393.923 183.246C394.248 183.217 394.572 183.308 394.836 183.501L395.131 190.56L394.299 190.641Z" fill="white"/>
<path d="M395.815 190.641C395.815 190.318 395.265 190.104 394.675 190.171C394.084 190.238 393.614 190.547 393.655 190.869C393.695 191.191 394.205 191.406 394.796 191.338C395.386 191.271 395.909 190.963 395.815 190.641Z" fill="#4A98E2"/>
<path opacity="0.2" d="M395.815 190.641C395.815 190.318 395.265 190.104 394.675 190.171C394.084 190.238 393.614 190.547 393.655 190.869C393.695 191.191 394.205 191.406 394.796 191.338C395.386 191.271 395.909 190.963 395.815 190.641Z" fill="white"/>
<path d="M413.799 174.281L406.874 172.939C406.734 172.642 406.691 172.308 406.753 171.986C406.842 171.671 407.042 171.399 407.317 171.221L414.027 173.449L413.799 174.281Z" fill="#4A98E2"/>
<path opacity="0.4" d="M413.799 174.281L406.874 172.939C406.734 172.642 406.691 172.308 406.753 171.986C406.842 171.671 407.042 171.399 407.317 171.221L414.027 173.449L413.799 174.281Z" fill="white"/>
<path d="M414.336 172.858C414.013 172.778 413.638 173.18 413.49 173.757C413.342 174.335 413.49 174.871 413.785 174.952C414.081 175.032 414.47 174.63 414.631 174.053C414.792 173.476 414.698 172.939 414.336 172.858Z" fill="#4A98E2"/>
<path opacity="0.2" d="M414.336 172.858C414.013 172.778 413.638 173.18 413.49 173.757C413.342 174.335 413.49 174.871 413.785 174.952C414.081 175.032 414.47 174.63 414.631 174.053C414.792 173.476 414.698 172.939 414.336 172.858Z" fill="white"/>
<path d="M380.623 186.923L384.301 180.897C384.626 180.873 384.95 180.953 385.227 181.125C385.492 181.314 385.675 181.597 385.737 181.917L381.308 187.406L380.623 186.923Z" fill="#4A98E2"/>
<path opacity="0.4" d="M380.623 186.923L384.301 180.897C384.626 180.873 384.95 180.953 385.227 181.125C385.492 181.314 385.675 181.597 385.737 181.917L381.308 187.406L380.623 186.923Z" fill="white"/>
<path d="M381.764 187.889C381.952 187.621 381.764 187.138 381.214 186.789C380.663 186.44 380.18 186.373 379.992 186.641C379.804 186.91 379.992 187.406 380.543 187.742C381.093 188.077 381.576 188.185 381.764 187.889Z" fill="#4A98E2"/>
<path opacity="0.2" d="M381.764 187.889C381.952 187.621 381.764 187.138 381.214 186.789C380.663 186.44 380.18 186.373 379.992 186.641C379.804 186.91 379.992 187.406 380.543 187.742C381.093 188.077 381.576 188.185 381.764 187.889Z" fill="white"/>
<path d="M409.223 185.501L403.854 180.911C403.878 180.585 404.005 180.274 404.217 180.025C404.45 179.793 404.76 179.654 405.089 179.636L409.813 184.897L409.223 185.501Z" fill="#4A98E2"/>
<path opacity="0.4" d="M409.223 185.501L403.854 180.911C403.878 180.585 404.005 180.274 404.217 180.025C404.45 179.793 404.76 179.654 405.089 179.636L409.813 184.897L409.223 185.501Z" fill="white"/>
<path d="M410.377 184.521C410.149 184.306 409.625 184.521 409.209 184.897C408.793 185.272 408.632 185.849 408.874 186.078C409.115 186.306 409.625 186.078 410.041 185.715C410.457 185.353 410.672 184.749 410.377 184.521Z" fill="#4A98E2"/>
<path opacity="0.2" d="M410.377 184.521C410.149 184.306 409.625 184.521 409.209 184.897C408.793 185.272 408.632 185.849 408.874 186.078C409.115 186.306 409.625 186.078 410.041 185.715C410.457 185.353 410.672 184.749 410.377 184.521Z" fill="white"/>
<path opacity="0.2" d="M396.5 164.752C396.5 165.048 396.617 165.331 396.826 165.54C397.035 165.749 397.318 165.866 397.613 165.866C397.91 165.866 398.195 165.749 398.406 165.541C398.617 165.332 398.737 165.049 398.741 164.752C398.737 164.454 398.617 164.169 398.407 163.959C398.196 163.748 397.911 163.628 397.613 163.625C397.317 163.628 397.033 163.749 396.825 163.96C396.616 164.171 396.499 164.455 396.5 164.752Z" fill="white"/>
<path opacity="0.2" d="M394.997 171.234C394.997 171.531 395.114 171.816 395.322 172.027C395.531 172.238 395.814 172.358 396.111 172.362C396.409 172.358 396.693 172.238 396.904 172.028C397.115 171.817 397.235 171.532 397.238 171.234C397.235 170.938 397.114 170.654 396.903 170.446C396.692 170.237 396.407 170.12 396.111 170.12C395.815 170.12 395.532 170.238 395.323 170.447C395.114 170.656 394.997 170.939 394.997 171.234Z" fill="white"/>
<path opacity="0.2" d="M403.707 175.677C403.707 175.973 403.823 176.258 404.032 176.469C404.241 176.68 404.524 176.8 404.82 176.804C405.118 176.8 405.403 176.68 405.614 176.47C405.824 176.259 405.944 175.974 405.948 175.677C405.944 175.38 405.824 175.097 405.613 174.888C405.402 174.68 405.117 174.563 404.82 174.563C404.525 174.563 404.242 174.68 404.033 174.889C403.824 175.098 403.707 175.381 403.707 175.677Z" fill="white"/>
<path opacity="0.2" d="M399.452 180.709C400.067 180.709 400.566 180.211 400.566 179.595C400.566 178.98 400.067 178.482 399.452 178.482C398.837 178.482 398.338 178.98 398.338 179.595C398.338 180.211 398.837 180.709 399.452 180.709Z" fill="white"/>
<path opacity="0.2" d="M388.112 163.732C388.112 163.952 388.178 164.168 388.3 164.351C388.422 164.534 388.596 164.677 388.8 164.761C389.003 164.846 389.227 164.868 389.444 164.825C389.66 164.782 389.858 164.676 390.014 164.52C390.17 164.364 390.276 164.165 390.319 163.949C390.362 163.733 390.34 163.509 390.255 163.306C390.171 163.102 390.028 162.928 389.845 162.806C389.662 162.683 389.447 162.618 389.226 162.618C389.08 162.618 388.935 162.647 388.8 162.703C388.665 162.759 388.542 162.841 388.439 162.944C388.335 163.048 388.253 163.171 388.197 163.306C388.141 163.441 388.112 163.586 388.112 163.732Z" fill="white"/>
<path opacity="0.2" d="M383.28 169.423C383.284 169.72 383.404 170.005 383.614 170.216C383.825 170.426 384.11 170.546 384.408 170.55C384.704 170.546 384.988 170.426 385.196 170.215C385.405 170.004 385.522 169.719 385.522 169.423C385.522 169.127 385.404 168.844 385.195 168.635C384.986 168.426 384.703 168.309 384.408 168.309C384.111 168.309 383.826 168.425 383.615 168.634C383.404 168.843 383.284 169.126 383.28 169.423Z" fill="white"/>
<path opacity="0.2" d="M381.71 177.354C381.714 177.652 381.834 177.937 382.044 178.147C382.255 178.358 382.54 178.478 382.838 178.481C383.134 178.478 383.417 178.357 383.626 178.146C383.835 177.935 383.951 177.651 383.951 177.354C383.951 177.059 383.834 176.775 383.625 176.566C383.416 176.357 383.133 176.24 382.838 176.24C382.541 176.24 382.256 176.357 382.045 176.566C381.834 176.774 381.714 177.057 381.71 177.354Z" fill="white"/>
<path opacity="0.2" d="M392.46 166.872C392.46 167.168 392.578 167.451 392.786 167.66C392.995 167.869 393.279 167.986 393.574 167.986C393.87 167.986 394.153 167.869 394.362 167.66C394.571 167.451 394.688 167.168 394.688 166.872C394.688 166.577 394.571 166.294 394.362 166.085C394.153 165.876 393.87 165.759 393.574 165.759C393.279 165.759 392.995 165.876 392.786 166.085C392.578 166.294 392.46 166.577 392.46 166.872Z" fill="white"/>
<path opacity="0.2" d="M389.052 178.294C389.055 178.59 389.176 178.874 389.387 179.082C389.598 179.291 389.882 179.408 390.179 179.408C390.325 179.408 390.47 179.379 390.605 179.323C390.741 179.267 390.863 179.185 390.967 179.081C391.07 178.978 391.152 178.855 391.208 178.72C391.264 178.585 391.293 178.44 391.293 178.294C391.293 177.997 391.176 177.712 390.968 177.501C390.759 177.29 390.476 177.17 390.179 177.166C389.881 177.17 389.596 177.29 389.386 177.5C389.175 177.711 389.055 177.996 389.052 178.294Z" fill="white"/>
<path opacity="0.2" d="M394.46 156.874C394.46 157.17 394.577 157.453 394.786 157.662C394.995 157.871 395.278 157.988 395.574 157.988C395.869 157.988 396.152 157.871 396.361 157.662C396.57 157.453 396.688 157.17 396.688 156.874C396.688 156.579 396.57 156.295 396.361 156.087C396.152 155.878 395.869 155.76 395.574 155.76C395.278 155.76 394.995 155.878 394.786 156.087C394.577 156.295 394.46 156.579 394.46 156.874Z" fill="white"/>
<path opacity="0.2" d="M381.777 163.142C382.393 163.142 382.891 162.643 382.891 162.028C382.891 161.413 382.393 160.914 381.777 160.914C381.162 160.914 380.664 161.413 380.664 162.028C380.664 162.643 381.162 163.142 381.777 163.142Z" fill="white"/>
<path opacity="0.2" d="M402.713 162.846C403.329 162.846 403.827 162.348 403.827 161.733C403.827 161.117 403.329 160.619 402.713 160.619C402.098 160.619 401.599 161.117 401.599 161.733C401.599 162.348 402.098 162.846 402.713 162.846Z" fill="white"/>
<path opacity="0.2" d="M392.944 162.591C392.944 162.665 392.958 162.738 392.987 162.805C393.015 162.873 393.057 162.934 393.109 162.985C393.162 163.037 393.224 163.077 393.293 163.104C393.361 163.131 393.434 163.144 393.507 163.142C393.653 163.142 393.793 163.084 393.896 162.981C394 162.877 394.058 162.737 394.058 162.591C394.059 162.518 394.046 162.445 394.02 162.377C393.993 162.308 393.952 162.246 393.901 162.194C393.85 162.141 393.789 162.099 393.721 162.071C393.653 162.042 393.581 162.028 393.507 162.028C393.358 162.028 393.214 162.087 393.109 162.193C393.003 162.299 392.944 162.442 392.944 162.591Z" fill="white"/>
<path opacity="0.2" d="M387.159 156.136C387.159 156.286 387.219 156.429 387.324 156.535C387.43 156.64 387.573 156.7 387.723 156.7C387.872 156.7 388.016 156.64 388.121 156.535C388.227 156.429 388.287 156.286 388.287 156.136C388.287 155.987 388.227 155.843 388.121 155.738C388.016 155.632 387.872 155.573 387.723 155.573C387.573 155.573 387.43 155.632 387.324 155.738C387.219 155.843 387.159 155.987 387.159 156.136Z" fill="white"/>
<path opacity="0.2" d="M399.801 156.31C399.8 156.384 399.813 156.457 399.839 156.525C399.866 156.594 399.906 156.656 399.958 156.708C400.009 156.761 400.07 156.803 400.138 156.831C400.206 156.86 400.278 156.874 400.352 156.874C400.501 156.874 400.645 156.815 400.75 156.709C400.856 156.603 400.915 156.46 400.915 156.31C400.915 156.161 400.856 156.018 400.75 155.912C400.645 155.806 400.501 155.747 400.352 155.747C400.278 155.747 400.206 155.761 400.138 155.79C400.07 155.818 400.009 155.86 399.958 155.913C399.906 155.965 399.866 156.027 399.839 156.096C399.813 156.164 399.8 156.237 399.801 156.31Z" fill="white"/>
<path opacity="0.2" d="M406.646 167.758C406.646 167.908 406.705 168.051 406.811 168.157C406.917 168.263 407.06 168.322 407.21 168.322C407.283 168.322 407.356 168.307 407.423 168.279C407.491 168.25 407.552 168.209 407.604 168.156C407.655 168.104 407.695 168.041 407.722 167.973C407.749 167.905 407.762 167.832 407.76 167.758C407.76 167.612 407.702 167.472 407.599 167.369C407.496 167.266 407.356 167.208 407.21 167.208C407.136 167.206 407.063 167.219 406.995 167.246C406.927 167.273 406.864 167.313 406.812 167.364C406.759 167.416 406.718 167.477 406.689 167.545C406.661 167.612 406.646 167.685 406.646 167.758Z" fill="white"/>
<path opacity="0.2" d="M388.984 169.194C388.984 169.344 389.044 169.487 389.149 169.593C389.255 169.699 389.399 169.758 389.548 169.758C389.698 169.758 389.841 169.699 389.947 169.593C390.052 169.487 390.112 169.344 390.112 169.194C390.112 169.045 390.052 168.902 389.947 168.796C389.841 168.69 389.698 168.631 389.548 168.631C389.399 168.631 389.255 168.69 389.149 168.796C389.044 168.902 388.984 169.045 388.984 169.194Z" fill="white"/>
<path opacity="0.2" d="M379.241 171.1C379.241 171.25 379.3 171.393 379.406 171.499C379.512 171.604 379.655 171.664 379.805 171.664C379.954 171.664 380.098 171.604 380.203 171.499C380.309 171.393 380.368 171.25 380.368 171.1C380.368 170.951 380.309 170.807 380.203 170.701C380.098 170.596 379.954 170.536 379.805 170.536C379.655 170.536 379.512 170.596 379.406 170.701C379.3 170.807 379.241 170.951 379.241 171.1Z" fill="white"/>
<path opacity="0.2" d="M389.95 174.133C389.949 174.207 389.961 174.28 389.988 174.348C390.015 174.416 390.055 174.478 390.107 174.531C390.158 174.583 390.219 174.625 390.287 174.654C390.355 174.682 390.427 174.697 390.501 174.697C390.65 174.697 390.793 174.637 390.899 174.532C391.005 174.426 391.064 174.283 391.064 174.133C391.064 173.984 391.005 173.84 390.899 173.735C390.793 173.629 390.65 173.569 390.501 173.569C390.427 173.569 390.355 173.584 390.287 173.613C390.219 173.641 390.158 173.683 390.107 173.735C390.055 173.788 390.015 173.85 389.988 173.918C389.961 173.987 389.949 174.06 389.95 174.133Z" fill="white"/>
<path opacity="0.2" d="M386.394 180.521C386.394 180.671 386.453 180.814 386.559 180.92C386.665 181.026 386.808 181.085 386.958 181.085C387.107 181.085 387.251 181.026 387.356 180.92C387.462 180.814 387.521 180.671 387.521 180.521C387.521 180.372 387.462 180.228 387.356 180.123C387.251 180.017 387.107 179.958 386.958 179.958C386.808 179.958 386.665 180.017 386.559 180.123C386.453 180.228 386.394 180.372 386.394 180.521Z" fill="white"/>
<path opacity="0.2" d="M393.225 180.521C393.246 180.654 393.314 180.775 393.416 180.863C393.518 180.95 393.648 180.998 393.782 180.998C393.917 180.998 394.047 180.95 394.149 180.863C394.251 180.775 394.319 180.654 394.339 180.521C394.352 180.441 394.347 180.359 394.325 180.281C394.302 180.202 394.263 180.13 394.211 180.068C394.158 180.006 394.092 179.957 394.018 179.923C393.944 179.889 393.864 179.871 393.782 179.871C393.701 179.871 393.621 179.889 393.547 179.923C393.473 179.957 393.407 180.006 393.354 180.068C393.301 180.13 393.262 180.202 393.24 180.281C393.218 180.359 393.213 180.441 393.225 180.521Z" fill="white"/>
<path d="M394.379 203.484C386.336 203.491 378.539 200.709 372.316 195.612C366.093 190.515 361.83 183.419 360.252 175.531C358.674 167.644 359.88 159.454 363.663 152.355C367.447 145.257 373.574 139.69 381.002 136.602C388.429 133.515 396.697 133.097 404.398 135.422C412.098 137.746 418.755 142.668 423.234 149.349C427.712 156.031 429.736 164.058 428.961 172.064C428.185 180.071 424.658 187.56 418.98 193.258C415.759 196.504 411.927 199.08 407.704 200.836C403.481 202.591 398.952 203.491 394.379 203.484ZM394.379 137.938C387.262 137.936 380.365 140.403 374.863 144.917C369.361 149.432 365.595 155.714 364.206 162.694C362.817 169.675 363.891 176.92 367.246 183.197C370.601 189.474 376.028 194.393 382.603 197.117C389.179 199.84 396.495 200.199 403.305 198.133C410.116 196.066 415.999 191.702 419.952 185.785C423.906 179.867 425.685 172.761 424.986 165.678C424.287 158.596 421.154 151.974 416.121 146.943C413.273 144.078 409.885 141.806 406.153 140.26C402.421 138.715 398.419 137.925 394.379 137.938Z" fill="#4A98E2"/>
<path d="M372.635 144.092L369.788 146.939L416.136 193.287L418.983 190.44L372.635 144.092Z" fill="#4A98E2"/>
<path d="M430.105 383.012H286.491V485.626H430.105V383.012Z" fill="#15233E"/>
<path opacity="0.2" d="M430.105 383.012H286.491V485.626H430.105V383.012Z" fill="white"/>
<path opacity="0.2" d="M370.209 383.012H286.491V485.626H370.209V383.012Z" fill="white"/>
<path d="M435.487 479.023H281.525L277.499 488.163H439.513L435.487 479.023Z" fill="#15233E"/>
<path opacity="0.2" d="M368.384 479.023H281.525L277.499 488.163H367.042L368.384 479.023Z" fill="white"/>
<path d="M265.192 262.508H334.497L357.245 312.809H416.832C420.353 312.809 423.729 314.207 426.218 316.696C428.707 319.185 430.105 322.561 430.105 326.082V372.786C430.107 374.399 429.791 375.998 429.175 377.489C428.558 378.98 427.654 380.336 426.513 381.477C425.373 382.619 424.019 383.525 422.528 384.143C421.037 384.761 419.439 385.079 417.825 385.079H310.017L254.067 281.123C252.559 278.31 252.166 275.032 252.966 271.943C253.677 269.241 255.262 266.851 257.473 265.144C259.685 263.438 262.399 262.511 265.192 262.508Z" fill="#4A98E2"/>
<path opacity="0.5" d="M430.105 326.122V372.826C430.106 375.975 428.898 379.005 426.731 381.29C424.563 383.575 421.601 384.941 418.456 385.106H310.017L254.066 281.149C253.035 279.225 252.519 277.065 252.57 274.882C252.621 272.699 253.237 270.566 254.357 268.691C255.478 266.817 257.065 265.264 258.964 264.185C260.862 263.107 263.008 262.538 265.192 262.535H334.496L357.244 312.836H417.382C420.81 312.974 424.05 314.436 426.423 316.914C428.795 319.391 430.115 322.692 430.105 326.122Z" fill="white"/>
<path opacity="0.2" d="M430.106 326.122V372.826C430.106 375.975 428.898 379.005 426.731 381.29C424.563 383.575 421.602 384.941 418.456 385.106H418.255C415.36 384.965 412.631 383.715 410.632 381.616C408.633 379.518 407.519 376.731 407.519 373.832V324.042C407.517 321.296 408.519 318.645 410.335 316.586C412.152 314.527 414.658 313.203 417.383 312.862C420.806 313.001 424.042 314.459 426.414 316.931C428.785 319.403 430.108 322.696 430.106 326.122Z" fill="black"/>
<path opacity="0.2" d="M407.545 356.989V385.106H310.017L254.067 281.149C253.161 279.467 252.65 277.6 252.57 275.691C252.491 273.782 252.846 271.88 253.608 270.128C254.371 268.376 255.521 266.82 256.971 265.577C258.422 264.333 260.137 263.436 261.985 262.951C263.878 263.411 265.656 264.256 267.207 265.433C268.759 266.611 270.051 268.096 271.003 269.795L319.814 357.03L407.545 356.989Z" fill="white"/>
<path d="M444.787 363.673H309.547C302.017 363.673 295.912 369.778 295.912 377.308C295.912 384.839 302.017 390.944 309.547 390.944H444.787C452.318 390.944 458.423 384.839 458.423 377.308C458.423 369.778 452.318 363.673 444.787 363.673Z" fill="#4A98E2"/>
<path opacity="0.5" d="M458.423 377.308C458.419 380.924 456.982 384.39 454.425 386.946C451.869 389.503 448.403 390.94 444.788 390.944H309.561C307.77 390.944 305.997 390.591 304.343 389.906C302.689 389.221 301.185 388.216 299.919 386.95C298.653 385.684 297.649 384.181 296.963 382.527C296.278 380.872 295.926 379.099 295.926 377.308C295.926 375.518 296.278 373.745 296.963 372.09C297.649 370.436 298.653 368.933 299.919 367.667C301.185 366.401 302.689 365.396 304.343 364.711C305.997 364.026 307.77 363.673 309.561 363.673H444.788C448.404 363.673 451.872 365.11 454.429 367.667C456.986 370.224 458.423 373.692 458.423 377.308Z" fill="white"/>
<path opacity="0.2" d="M385.951 377.308C385.948 380.924 384.51 384.39 381.954 386.946C379.397 389.503 375.931 390.94 372.316 390.944H282.72C280.929 390.944 279.156 390.591 277.502 389.906C275.847 389.221 274.344 388.216 273.078 386.95C271.812 385.684 270.807 384.181 270.122 382.527C269.437 380.872 269.084 379.099 269.084 377.308C269.084 375.518 269.437 373.745 270.122 372.09C270.807 370.436 271.812 368.933 273.078 367.667C274.344 366.401 275.847 365.396 277.502 364.711C279.156 364.026 280.929 363.673 282.72 363.673H372.316C375.932 363.673 379.4 365.11 381.958 367.667C384.515 370.224 385.951 373.692 385.951 377.308Z" fill="white"/>
<path d="M525.191 431.165L480.567 376.208C479.187 374.506 477.407 373.171 475.386 372.324C473.366 371.476 471.167 371.141 468.985 371.35H412.283C408.851 371.051 405.438 372.1 402.767 374.275C401.403 375.379 400.269 376.741 399.432 378.284C398.595 379.827 398.072 381.52 397.891 383.265C397.71 385.011 397.876 386.776 398.379 388.457C398.882 390.139 399.712 391.704 400.822 393.064L445.459 448.089C446.702 449.625 448.273 450.864 450.056 451.716C451.839 452.568 453.79 453.012 455.766 453.014H514.709C517.239 453.04 519.725 452.346 521.875 451.011C524.024 449.677 525.75 447.758 526.849 445.479C527.949 443.2 528.377 440.655 528.083 438.141C527.789 435.628 526.786 433.25 525.191 431.286V431.165Z" fill="#4A98E2"/>
<path opacity="0.2" d="M464.194 449.914C462.835 451.026 461.269 451.857 459.587 452.361C457.906 452.865 456.141 453.031 454.394 452.85C452.648 452.67 450.955 452.145 449.412 451.307C447.869 450.469 446.507 449.334 445.405 447.968L400.781 392.943C399.669 391.585 398.836 390.02 398.331 388.339C397.826 386.658 397.659 384.893 397.838 383.147C398.018 381.401 398.541 379.707 399.378 378.164C400.215 376.621 401.348 375.258 402.714 374.155C404.073 373.046 405.639 372.216 407.319 371.713C409 371.21 410.764 371.043 412.509 371.223C414.254 371.402 415.947 371.925 417.49 372.759C419.034 373.594 420.397 374.725 421.503 376.087L466.126 431.045C467.249 432.406 468.091 433.976 468.602 435.665C469.113 437.354 469.284 439.128 469.104 440.883C468.924 442.639 468.397 444.341 467.554 445.891C466.712 447.441 465.569 448.809 464.194 449.914Z" fill="white"/>
<path opacity="0.5" d="M525.191 431.165L480.567 376.208C479.187 374.506 477.407 373.171 475.386 372.324C473.366 371.476 471.167 371.141 468.985 371.35H412.283C408.851 371.051 405.438 372.1 402.767 374.275C401.403 375.379 400.269 376.741 399.432 378.284C398.595 379.827 398.072 381.52 397.891 383.265C397.71 385.011 397.876 386.776 398.379 388.457C398.882 390.139 399.712 391.704 400.822 393.064L445.459 448.089C446.702 449.625 448.273 450.864 450.056 451.716C451.839 452.568 453.79 453.012 455.766 453.014H514.709C517.239 453.04 519.725 452.346 521.875 451.011C524.024 449.677 525.75 447.758 526.849 445.479C527.949 443.2 528.377 440.655 528.083 438.141C527.789 435.628 526.786 433.25 525.191 431.286V431.165Z" fill="white"/>
<path d="M302.569 271.003C302.516 271.006 302.464 270.995 302.417 270.971C302.37 270.948 302.33 270.912 302.3 270.869C298.556 265.89 300.234 254.402 303.092 248.349C303.835 246.779 304.148 245.039 303.997 243.308C303.846 241.577 303.237 239.917 302.233 238.499C302.201 238.465 302.177 238.425 302.161 238.381C302.146 238.337 302.139 238.291 302.143 238.244C302.146 238.198 302.159 238.153 302.18 238.112C302.202 238.071 302.232 238.034 302.268 238.006C302.305 237.977 302.347 237.956 302.392 237.944C302.437 237.932 302.484 237.93 302.529 237.937C302.575 237.944 302.619 237.961 302.658 237.986C302.697 238.011 302.731 238.044 302.757 238.082C303.838 239.6 304.495 241.379 304.661 243.236C304.826 245.092 304.493 246.959 303.696 248.645C300.918 254.536 299.24 265.689 302.837 270.467C302.864 270.502 302.883 270.542 302.894 270.585C302.905 270.627 302.907 270.672 302.901 270.715C302.895 270.759 302.88 270.801 302.857 270.839C302.835 270.877 302.805 270.91 302.77 270.936C302.713 270.982 302.642 271.005 302.569 271.003Z" fill="#15233E"/>
<path d="M300.757 238.592C300.757 238.592 290.719 223.615 302.26 212.046C311.588 202.652 329.249 204.437 338.281 221.776C346.683 237.881 338.12 239.841 349.018 246.766C359.915 253.691 360.801 260.831 354.386 274.251C347.971 287.672 330.041 294.194 318.379 287.511C306.716 280.827 301.858 259.327 304.877 249.732C307.897 240.136 300.757 238.592 300.757 238.592Z" fill="#15233E"/>
<path d="M360.64 262.844H360.533C360.45 262.816 360.381 262.757 360.341 262.679C360.301 262.601 360.292 262.511 360.318 262.428C362.197 256.442 356.184 251.463 350.923 247.074C348.61 245.338 346.514 243.328 344.683 241.089C343.126 238.807 342.844 235.922 342.536 232.567C342.012 226.997 341.422 220.689 334.819 214.462C324.431 204.638 311.883 210.074 311.762 210.127C311.722 210.147 311.678 210.158 311.633 210.16C311.588 210.162 311.544 210.154 311.502 210.138C311.46 210.121 311.423 210.096 311.391 210.065C311.36 210.033 311.335 209.995 311.319 209.953C311.282 209.873 311.279 209.781 311.309 209.698C311.339 209.615 311.4 209.548 311.48 209.51C311.614 209.51 324.552 203.846 335.288 213.979C342.066 220.381 342.697 227.104 343.207 232.513C343.515 235.761 343.77 238.566 345.247 240.7C347.033 242.898 349.084 244.868 351.353 246.564C356.802 251.087 362.989 256.214 360.976 262.669C360.944 262.729 360.895 262.777 360.835 262.808C360.775 262.839 360.707 262.852 360.64 262.844Z" fill="#15233E"/>
<path d="M401.573 306.407L409.626 309.239C409.626 309.239 420.201 309.615 421.369 310.071C422.537 310.527 422.711 319.09 422.818 320.016C422.926 320.942 412.458 321.465 411.29 320.646C410.122 319.828 409.008 316.405 409.008 316.405L398.272 311.748L401.573 306.407Z" fill="#FF7448"/>
<path d="M407.545 307.736L404.861 314.741C404.861 314.741 391.44 312.057 379.899 309.252C372.329 307.4 365.565 305.495 363.995 304.233C361.821 302.502 356.748 291.698 352.574 282.223C349.071 274.251 346.199 267.192 346.199 267.192L349.97 263.354C358.412 266.266 372.155 295.228 372.155 295.228L407.545 307.736Z" fill="#4A98E2"/>
<path opacity="0.2" d="M379.926 309.252C372.357 307.4 365.592 305.494 364.022 304.233C361.848 302.502 356.775 291.698 352.601 282.223L355.916 276.747C355.916 276.747 370.786 292.154 379.926 309.252Z" fill="black"/>
<path d="M521.487 421.771L515.514 426.576L507.851 419.047L500.832 412.135L506.992 405.277L514.669 414.014L521.487 421.771Z" fill="#FF7448"/>
<path d="M514.011 427.972C513.353 427.435 520.198 419.61 520.198 419.61C520.198 419.61 529.244 418.497 534.182 414.47C539.121 410.444 539.953 415.45 535.739 420.953L525.284 434.561C522.305 438.466 520.856 433.487 514.011 427.972Z" fill="#15233E"/>
<path d="M521.876 419.584H521.809C521.722 419.561 521.646 419.508 521.594 419.436C521.594 419.342 520.131 417.154 520.534 415.665C520.594 415.434 520.703 415.218 520.853 415.033C521.004 414.848 521.192 414.697 521.406 414.591C521.575 414.466 521.78 414.398 521.99 414.398C522.2 414.398 522.405 414.466 522.574 414.591C522.765 414.886 522.89 415.218 522.941 415.565C522.992 415.913 522.967 416.267 522.869 416.604C523.232 415.981 523.756 415.466 524.385 415.115C524.532 415.051 524.689 415.019 524.849 415.019C525.008 415.019 525.165 415.051 525.312 415.115C525.929 415.383 526.063 415.759 526.076 416.041C526.076 417.383 522.708 419.221 522.05 419.57L521.876 419.584ZM524.869 415.651C524.789 415.635 524.707 415.635 524.627 415.651C523.876 415.96 523.057 417.409 522.547 418.47C523.889 417.664 525.446 416.577 525.419 415.973C525.419 415.853 525.298 415.732 525.057 415.638C524.994 415.628 524.929 415.633 524.869 415.651ZM522.064 415.047C521.935 415.058 521.811 415.099 521.701 415.168C521.568 415.231 521.451 415.322 521.358 415.436C521.265 415.55 521.199 415.683 521.165 415.826C521.075 416.764 521.292 417.705 521.782 418.51C522.238 416.98 522.466 415.41 522.144 415.128L522.064 415.047Z" fill="#4A98E2"/>
<path opacity="0.2" d="M514.817 414.188L507.986 419.208L500.9 412.216L507.019 405.317L514.817 414.188Z" fill="black"/>
<path d="M371.645 312.057L379.362 325.397C379.362 325.397 446.747 337.932 456.652 343.73C466.556 349.528 510.334 408.847 510.334 408.847L501.933 415.276L434.333 362.022L357.218 354.52L371.645 312.057Z" fill="#15233E"/>
<path opacity="0.3" d="M371.645 312.057L379.362 325.397C379.362 325.397 446.747 337.932 456.652 343.73C466.556 349.528 510.334 408.847 510.334 408.847L501.933 415.276L434.333 362.022L357.218 354.52L371.645 312.057Z" fill="black"/>
<path d="M506.174 424.415L500.497 429.568L492.391 422.509L484.969 416.014L490.713 408.807L498.9 417.074L506.174 424.415Z" fill="#FF7448"/>
<path d="M499.061 429.313C498.511 428.669 506.684 422.241 506.684 422.241C506.684 422.241 515.783 422.804 521.366 419.758C526.949 416.711 526.868 421.784 521.701 426.468L508.938 437.929C505.261 441.164 504.751 435.983 499.061 429.313Z" fill="#15233E"/>
<path d="M508.361 422.523H508.254L508.16 422.455C508.131 422.435 508.108 422.407 508.093 422.375C508.093 422.281 507.073 419.865 507.744 418.47C507.844 418.254 507.989 418.061 508.17 417.906C508.35 417.751 508.562 417.637 508.791 417.57C509.448 417.383 509.784 417.57 509.945 417.785C510.267 418.188 510.146 418.993 509.864 419.825C510.333 419.277 510.94 418.864 511.622 418.631C511.78 418.595 511.942 418.591 512.101 418.618C512.26 418.646 512.412 418.705 512.548 418.792C512.739 418.887 512.895 419.039 512.996 419.226C513.097 419.413 513.137 419.627 513.112 419.838C512.911 421.181 509.22 422.348 508.482 422.523H508.361ZM511.877 419.194H511.73C510.938 419.369 509.864 420.63 509.166 421.583C510.683 421.046 512.36 420.241 512.454 419.664C512.454 419.543 512.374 419.409 512.159 419.261C512.074 419.211 511.976 419.188 511.877 419.194ZM509.193 418.094C509.091 418.078 508.987 418.078 508.884 418.094C508.74 418.129 508.605 418.197 508.491 418.292C508.377 418.387 508.287 418.508 508.227 418.644C507.988 419.531 508.035 420.47 508.361 421.328C509.086 419.906 509.609 418.402 509.341 418.067C509.312 418.07 509.285 418.08 509.26 418.094H509.193Z" fill="#4A98E2"/>
<path opacity="0.2" d="M499.061 417.248L492.538 422.657L485.036 416.094L490.753 408.847L499.061 417.248Z" fill="black"/>
<path d="M495.733 410.9L486.338 420.134C454.518 395.977 425.502 370.397 425.502 370.397C379.322 376.731 344.254 369.524 340.268 367.27C322.338 357.097 330.873 321.532 330.873 321.532L369.471 307.736C372.719 312.339 374.839 323.008 375.9 329.813C376.463 333.369 376.732 335.865 376.732 335.865C420.496 345.018 434.87 344.83 442.493 353.594C449.176 361.284 495.733 410.9 495.733 410.9Z" fill="#15233E"/>
<path d="M484.862 419.047L495.062 407.934L498.108 413.732L489.707 422.617L484.862 419.047Z" fill="#4A98E2"/>
<path opacity="0.5" d="M330.873 321.519L330.377 326.095L371.645 312.057L369.337 307.279L330.873 321.519Z" fill="black"/>
<path d="M352.534 313.708L354.333 318.164C354.431 318.397 354.615 318.585 354.847 318.687C355.079 318.789 355.342 318.799 355.581 318.714L361.566 316.473C361.687 316.428 361.798 316.36 361.892 316.272C361.987 316.184 362.063 316.079 362.117 315.962C362.17 315.844 362.2 315.718 362.205 315.589C362.209 315.46 362.189 315.332 362.143 315.211L360.412 310.796C360.319 310.561 360.138 310.372 359.907 310.269C359.676 310.166 359.414 310.157 359.177 310.245L353.111 312.42C352.987 312.464 352.874 312.533 352.777 312.623C352.68 312.712 352.603 312.821 352.549 312.941C352.495 313.061 352.466 313.191 352.463 313.323C352.461 313.455 352.485 313.586 352.534 313.708Z" fill="white"/>
<path d="M342.428 317.184L343.475 322.727L341.958 323.17L340.656 317.68L342.428 317.184Z" fill="#15233E"/>
<path d="M364.022 309.252L366.236 314.741L367.632 314.339L365.471 308.581L364.022 309.252Z" fill="#15233E"/>
<path opacity="0.3" d="M376.732 335.865L367.632 334.282L375.899 329.813C376.463 333.369 376.732 335.865 376.732 335.865Z" fill="black"/>
<path d="M499.517 415.329L509.865 404.351L512.831 410.189L504.308 418.966L499.517 415.329Z" fill="#4A98E2"/>
<path d="M370.209 309.078L330.873 321.532C323.738 313.48 317.147 304.961 311.144 296.033C308.034 291.391 305.267 286.529 302.864 281.485C300.327 276.009 298.717 270.748 298.838 266.4C298.838 266.4 301.414 265.514 305.763 264.494C317.778 261.564 330.213 260.746 342.508 262.079C345.039 262.398 347.552 262.846 350.037 263.421L370.209 309.078Z" fill="#4A98E2"/>
<path d="M320.056 257.569C320.652 260.559 320.652 263.638 320.056 266.628L333.678 263.944C331.061 262.401 329.773 252.563 329.129 248.537C328.806 246.618 328.645 244.833 328.565 243.598C328.484 242.364 328.484 241.88 328.484 241.88L323.572 244.417L315.52 248.551C317.58 251.248 319.118 254.307 320.056 257.569Z" fill="#FF7448"/>
<path opacity="0.2" d="M315.614 248.577C317.637 251.275 319.143 254.323 320.056 257.569C324.073 255.754 327.306 252.559 329.168 248.564C328.846 246.645 328.685 244.86 328.605 243.625C326.847 243.88 325.182 244.162 323.612 244.444L315.614 248.577Z" fill="black"/>
<path d="M319.814 209.188C319.814 209.188 297.375 201.887 291.537 223.253C285.699 244.618 302.864 243.075 302.864 243.075L319.814 209.188Z" fill="#15233E"/>
<path d="M310.017 217.119C299.428 220.152 297.643 226.796 299.992 237.935C302.918 251.852 308.715 260.669 321.13 254.04C338.026 244.86 327.639 212.046 310.017 217.119Z" fill="#FF7448"/>
<path d="M306.703 235.372C306.311 237.202 305.698 238.977 304.877 240.659C305.314 241.008 305.838 241.23 306.393 241.298C306.947 241.367 307.51 241.281 308.018 241.049L306.703 235.372Z" fill="#FF7448"/>
<path d="M312.943 232.661C313.171 233.533 313.829 234.123 314.406 234.003C314.983 233.882 315.278 233.023 315.05 232.151C314.822 231.278 314.164 230.688 313.587 230.809C313.01 230.929 312.701 231.775 312.943 232.661Z" fill="#15233E"/>
<path d="M313.842 230.835L311.735 230.594C311.735 230.594 313.104 231.882 313.842 230.835Z" fill="#15233E"/>
<path d="M301.965 235.318C302.193 236.19 302.851 236.781 303.428 236.66C304.005 236.539 304.3 235.667 304.072 234.794C303.844 233.922 303.186 233.332 302.609 233.452C302.032 233.573 301.777 234.445 301.965 235.318Z" fill="#15233E"/>
<path d="M302.904 233.439L300.797 233.184C300.797 233.184 302.166 234.539 302.904 233.439Z" fill="#15233E"/>
<path d="M316.003 226.084C315.904 226.083 315.807 226.055 315.721 226.004C315.027 225.619 314.254 225.398 313.461 225.356C312.668 225.314 311.876 225.453 311.145 225.762C311.025 225.809 310.892 225.808 310.773 225.761C310.653 225.714 310.556 225.623 310.501 225.507C310.451 225.388 310.45 225.254 310.497 225.133C310.545 225.013 310.638 224.916 310.756 224.863C311.64 224.486 312.6 224.319 313.56 224.378C314.52 224.436 315.453 224.717 316.285 225.199C316.388 225.276 316.458 225.39 316.48 225.517C316.502 225.644 316.476 225.775 316.406 225.883C316.359 225.946 316.299 225.997 316.229 226.032C316.159 226.067 316.081 226.085 316.003 226.084Z" fill="#15233E"/>
<path d="M299.147 229.627C299.034 229.631 298.924 229.593 298.838 229.52C298.793 229.475 298.757 229.422 298.733 229.363C298.708 229.304 298.696 229.241 298.696 229.178C298.696 229.114 298.708 229.051 298.733 228.993C298.757 228.934 298.793 228.881 298.838 228.836C299.348 228.153 300.008 227.595 300.766 227.204C301.524 226.814 302.361 226.6 303.213 226.581C303.341 226.581 303.464 226.632 303.555 226.722C303.645 226.813 303.696 226.936 303.696 227.064C303.696 227.192 303.645 227.315 303.555 227.406C303.464 227.496 303.341 227.547 303.213 227.547C302.512 227.579 301.828 227.769 301.21 228.101C300.592 228.433 300.056 228.9 299.643 229.466C299.584 229.538 299.507 229.591 299.418 229.62C299.33 229.648 299.236 229.651 299.147 229.627Z" fill="#15233E"/>
<path d="M326.74 231.654C326.74 231.654 319.291 224.367 318.07 217.415C318.07 217.415 294.624 214.838 299.697 236.445C299.697 236.445 292.222 218.113 310.313 212.476C328.404 206.839 335.946 233.506 328.82 244.135C328.873 244.162 331.356 236.204 326.74 231.654Z" fill="#15233E"/>
<path d="M310.46 245.799C310.363 245.797 310.268 245.767 310.187 245.712C310.106 245.657 310.042 245.58 310.004 245.491C309.961 245.368 309.967 245.233 310.022 245.115C310.078 244.997 310.177 244.905 310.299 244.86C313.95 243.518 314.03 240.941 314.03 240.834C314.03 240.77 314.043 240.707 314.067 240.649C314.091 240.59 314.127 240.537 314.172 240.492C314.216 240.447 314.27 240.412 314.328 240.387C314.387 240.363 314.45 240.351 314.513 240.351C314.641 240.351 314.764 240.401 314.855 240.492C314.945 240.583 314.996 240.706 314.996 240.834C314.996 240.968 314.996 244.175 310.635 245.773C310.579 245.794 310.52 245.803 310.46 245.799Z" fill="#15233E"/>
<path d="M300.797 241.209C302.444 239.885 304.38 238.965 306.447 238.525C310.915 238.23 315.394 238.172 319.868 238.351L325.612 249.718C325.612 249.718 320.673 256.026 309.923 256.254C309.869 256.254 301.965 252.604 300.797 241.209Z" fill="#4A98E2"/>
<path opacity="0.5" d="M300.797 241.209C302.444 239.885 304.38 238.965 306.447 238.525C310.915 238.23 315.394 238.172 319.868 238.351L325.612 249.718C325.612 249.718 320.673 256.026 309.923 256.254C309.869 256.254 301.965 252.604 300.797 241.209Z" fill="white"/>
<path d="M324.7 250.054C324.611 250.049 324.527 250.016 324.458 249.96C324.396 249.895 324.361 249.808 324.361 249.718C324.361 249.628 324.396 249.542 324.458 249.477C328.036 246.164 330.159 241.572 330.363 236.7C330.49 234.538 329.773 232.412 328.363 230.768C328.209 230.593 328.011 230.461 327.79 230.386C327.569 230.311 327.331 230.294 327.102 230.339C324.592 230.808 321.197 237.291 320.11 239.733C320.072 239.816 320.003 239.881 319.917 239.914C319.832 239.946 319.737 239.944 319.653 239.908C319.574 239.87 319.512 239.802 319.482 239.719C319.452 239.636 319.456 239.545 319.492 239.465C319.653 239.089 323.613 230.298 326.968 229.668C327.304 229.598 327.653 229.618 327.98 229.723C328.307 229.829 328.601 230.018 328.833 230.272C330.37 232.044 331.159 234.344 331.034 236.687C330.831 241.74 328.635 246.507 324.928 249.946C324.865 250.005 324.785 250.042 324.7 250.054Z" fill="white"/>
<path d="M325.653 234.378C325.404 233.124 325.662 231.822 326.372 230.758C327.081 229.694 328.183 228.954 329.437 228.701C332.819 228.124 336.309 234.419 328.619 238.364C327.464 238.888 326.525 237.989 325.653 234.378Z" fill="#FF7448"/>
<path d="M335.127 272.909C321.962 273.902 309.964 267.165 305.723 264.454C317.738 261.523 330.172 260.706 342.468 262.038C344.481 266.413 345.112 272.144 335.127 272.909Z" fill="#FF7448"/>
<path opacity="0.2" d="M311.145 295.993C308.035 291.351 305.267 286.489 302.864 281.445C304.177 279.883 305.855 278.671 307.749 277.915C307.749 277.915 314.714 287.35 311.145 295.993Z" fill="black"/>
<path d="M280.68 317.184H333.275C335.607 317.184 337.843 318.11 339.491 319.759C341.14 321.407 342.066 323.643 342.066 325.974V380.999C342.066 383.519 341.065 385.936 339.283 387.718C337.501 389.5 335.084 390.501 332.564 390.501H282.049C279.354 390.501 276.77 389.431 274.865 387.525C272.96 385.62 271.889 383.036 271.889 380.342V325.974C271.889 323.643 272.815 321.407 274.464 319.759C276.112 318.11 278.348 317.184 280.68 317.184Z" fill="#4A98E2"/>
<path opacity="0.5" d="M342.066 325.975V380.999C342.071 383.251 341.277 385.432 339.824 387.152C338.372 388.873 336.355 390.022 334.134 390.394C333.62 390.486 333.099 390.53 332.577 390.528H282.049C279.354 390.528 276.77 389.458 274.865 387.552C272.96 385.647 271.889 383.063 271.889 380.368V325.975C271.889 323.643 272.815 321.407 274.464 319.759C276.112 318.11 278.348 317.184 280.68 317.184H333.289C333.467 317.171 333.647 317.171 333.826 317.184C336.061 317.321 338.16 318.308 339.692 319.942C341.224 321.576 342.073 323.734 342.066 325.975Z" fill="white"/>
<path opacity="0.2" d="M342.066 325.974V380.999C342.071 383.251 341.277 385.431 339.824 387.152C338.371 388.873 336.355 390.021 334.134 390.394C331.745 390.019 329.57 388.802 327.999 386.964C326.429 385.125 325.568 382.786 325.572 380.368V325.974C325.493 324.843 325.647 323.707 326.026 322.638C326.404 321.569 326.999 320.589 327.772 319.76C328.546 318.93 329.482 318.269 330.522 317.816C331.562 317.364 332.684 317.131 333.819 317.131C334.953 317.131 336.075 317.364 337.115 317.816C338.155 318.269 339.091 318.93 339.865 319.76C340.638 320.589 341.233 321.569 341.612 322.638C341.99 323.707 342.145 324.843 342.066 325.974Z" fill="black"/>
<path d="M307.105 312.849L315.157 315.681C315.157 315.681 325.746 316.057 326.9 316.513C328.055 316.969 328.242 325.532 328.35 326.458C328.457 327.384 317.989 327.92 316.835 327.102C315.681 326.283 314.553 322.847 314.553 322.847L303.817 319.157L307.105 312.849Z" fill="#FF7448"/>
<path d="M298.798 266.36C291.255 269.178 275.781 301.334 275.781 307.736C275.781 314.137 313.118 321.156 313.118 321.156L316.687 315.788C316.687 315.788 290.893 305.964 290.074 303.71C289.256 301.455 305.441 283.176 305.441 283.176C305.441 283.176 307.118 276.09 305.441 272.976C303.763 269.863 298.798 266.36 298.798 266.36Z" fill="#FF7448"/>
<path d="M298.798 266.36C295.711 265.112 288.356 275.915 288.356 275.915L304.287 287.202L306.864 285.149C306.864 285.149 311.896 271.674 298.798 266.36Z" fill="#4A98E2"/>
<path d="M286.491 276.747L287.753 273.003L305.347 287.229L304.099 288.745L286.491 276.747Z" fill="#4A98E2"/>
<path opacity="0.6" d="M286.491 276.747L287.753 273.003L305.347 287.229L304.099 288.745L286.491 276.747Z" fill="white"/>
<path d="M234.727 260.549L226.232 266.118L223.186 258.227L231.936 253.825L234.727 260.549Z" fill="#F96363"/>
<path d="M189.862 265.461C189.996 265.769 198.505 275.473 203.605 276.586C208.705 277.7 228.151 266.575 228.151 266.575L223.763 255.556C223.763 255.556 207.967 261.26 206.638 261.918C205.309 262.575 200.531 256.133 200.531 256.133L189.862 265.461Z" fill="#4A98E2"/>
<path opacity="0.1" d="M189.862 265.461C189.996 265.769 198.505 275.473 203.605 276.586C208.705 277.7 228.151 266.575 228.151 266.575L223.763 255.556C223.763 255.556 207.967 261.26 206.638 261.918C205.309 262.575 200.531 256.133 200.531 256.133L189.862 265.461Z" fill="white"/>
<path d="M229.413 253.651L233.305 263.716L236.311 261.555L239.988 261.126C241.867 260.911 249.96 255.261 250.376 254.416C250.792 253.57 244.779 240.686 244.43 240.914C244.081 241.143 232.66 247.987 232.043 248.229C231.426 248.47 231.144 252.913 231.144 252.913L229.413 253.651Z" fill="#4A98E2"/>
<path opacity="0.8" d="M229.413 253.651L233.305 263.716L236.311 261.555L239.988 261.126C241.867 260.911 249.96 255.261 250.376 254.416C250.792 253.57 244.779 240.686 244.43 240.914C244.081 241.143 232.66 247.987 232.043 248.229C231.426 248.47 231.144 252.913 231.144 252.913L229.413 253.651Z" fill="white"/>
<path d="M238.742 252.912L240.29 253.953L246.319 244.988L244.771 243.947L238.742 252.912Z" fill="#4A98E2"/>
<path opacity="0.3" d="M238.742 252.912L240.29 253.953L246.319 244.988L244.771 243.947L238.742 252.912Z" fill="white"/>
<path d="M237.472 252.82L240.847 255.09L241.371 254.31L237.997 252.041L237.472 252.82Z" fill="#4A98E2"/>
<path opacity="0.5" d="M237.472 252.82L240.847 255.09L241.371 254.31L237.997 252.041L237.472 252.82Z" fill="white"/>
<path d="M239.894 244.538L247.598 249.718L245.987 246.39L243.598 244.78L239.894 244.538Z" fill="#4A98E2"/>
<path d="M239.685 244.889L247.38 250.064L247.612 249.719L239.917 244.544L239.685 244.889Z" fill="#4A98E2"/>
<path opacity="0.6" d="M239.685 244.889L247.38 250.064L247.612 249.719L239.917 244.544L239.685 244.889Z" fill="white"/>
<path opacity="0.5" d="M239.894 244.538L247.598 249.718L245.987 246.39L243.598 244.78L239.894 244.538Z" fill="white"/>
<path d="M253.583 232.996L253.127 232.687L258.509 224.702L258.361 225.883L253.583 232.996Z" fill="#4A98E2"/>
<path d="M252.121 233.341L253.368 234.18L254.604 232.342L253.357 231.504L252.121 233.341Z" fill="#4A98E2"/>
<path opacity="0.5" d="M252.121 233.341L253.368 234.18L254.604 232.342L253.357 231.504L252.121 233.341Z" fill="white"/>
<path d="M246.595 247.64L242.23 244.705L250.73 232.065C250.825 231.923 250.973 231.825 251.141 231.792C251.308 231.759 251.482 231.794 251.624 231.889L254.965 234.136C255.107 234.232 255.205 234.379 255.238 234.547C255.271 234.715 255.235 234.888 255.14 235.03L246.677 247.615L246.595 247.64Z" fill="#4A98E2"/>
<path opacity="0.6" d="M246.595 247.64L242.23 244.705L250.73 232.065C250.825 231.923 250.973 231.825 251.141 231.792C251.308 231.759 251.482 231.794 251.624 231.889L254.965 234.136C255.107 234.232 255.205 234.379 255.238 234.547C255.271 234.715 255.235 234.888 255.14 235.03L246.677 247.615L246.595 247.64Z" fill="white"/>
<path d="M231.278 185.97C231.278 185.97 226.098 220.958 224.38 222.595C222.662 224.232 201.377 217.871 201.377 217.871L204.396 183.675L231.278 185.97Z" fill="#4A98E2"/>
<path opacity="0.8" d="M231.278 185.97C231.278 185.97 226.098 220.958 224.38 222.595C222.662 224.232 201.377 217.871 201.377 217.871L204.396 183.675L231.278 185.97Z" fill="white"/>
<path d="M223.44 202.813C223.05 204.639 222.437 206.41 221.615 208.088C222.052 208.436 222.575 208.658 223.129 208.729C223.683 208.8 224.246 208.717 224.756 208.49L223.44 202.813Z" fill="#FF7448"/>
<path d="M225.709 196.21C225.611 196.211 225.516 196.178 225.44 196.116C224.743 195.733 223.967 195.513 223.172 195.473C222.376 195.434 221.583 195.575 220.85 195.888C220.736 195.917 220.616 195.904 220.51 195.852C220.405 195.799 220.321 195.712 220.275 195.604C220.228 195.496 220.221 195.375 220.255 195.262C220.289 195.149 220.362 195.053 220.461 194.989C221.346 194.611 222.306 194.445 223.266 194.503C224.225 194.562 225.158 194.843 225.991 195.324C226.095 195.398 226.167 195.509 226.189 195.635C226.212 195.761 226.184 195.89 226.111 195.995C226.069 196.063 226.009 196.119 225.939 196.157C225.868 196.194 225.789 196.213 225.709 196.21Z" fill="#15233E"/>
<path d="M223.293 199.646C223.025 200.505 223.293 201.35 223.843 201.538C224.394 201.726 225.105 201.162 225.387 200.303C225.668 199.445 225.387 198.599 224.836 198.411C224.286 198.223 223.575 198.787 223.293 199.646Z" fill="#15233E"/>
<path d="M219.16 213.751C217.056 217.137 213.823 219.67 210.033 220.904C209.223 221.17 208.393 221.372 207.551 221.508C204.314 222.081 200.978 221.581 198.052 220.084C195.125 218.586 192.768 216.174 191.338 213.214C187.5 205.578 189.822 198.948 192.855 187.447C193.52 184.748 194.864 182.264 196.759 180.231C198.654 178.199 201.038 176.685 203.684 175.833C206.33 174.982 209.149 174.822 211.874 175.367C214.599 175.913 217.14 177.147 219.253 178.951C228.863 187.084 224.917 204.383 219.16 213.751Z" fill="#F96363"/>
<path opacity="0.2" d="M210.034 220.904C209.223 221.17 208.393 221.372 207.551 221.508C205.331 221.896 203.053 221.784 200.883 221.181C198.712 220.577 196.703 219.497 195.002 218.019C195.949 216.827 197.045 215.762 198.264 214.852C202.687 215.696 206.773 217.798 210.034 220.904Z" fill="black"/>
<path d="M174.267 225.266C176.213 232.929 193.539 233.963 193.539 233.963C193.539 233.963 202.357 236.848 202.33 233.479C198.424 229.842 197.646 226.393 198.505 223.186C199.1 221.225 200.076 219.401 201.377 217.818C202.072 216.923 202.816 216.067 203.605 215.254L196.062 194.6C193.257 203.082 182.521 223.186 174.267 225.266Z" fill="#F96363"/>
<path d="M217.629 173.046C217.629 173.046 221.213 172.187 224.742 178.656C227.722 184.105 222.34 185.943 223.239 191.996C224.138 198.049 218.985 202.008 218.985 202.008C218.985 202.008 214.757 206.544 210.557 204.799C210.557 204.799 205.658 207.913 204.786 212.503C203.913 217.093 195.002 209.966 187.889 212.047C187.889 212.047 182.521 208.02 181.635 196.881C181.376 192.014 182.041 187.141 183.595 182.521C183.595 182.521 184.937 175.69 192.828 171.087C200.719 166.483 215.455 167.678 217.629 173.046Z" fill="#15233E"/>
<path d="M219.629 203.994C219.629 203.994 215.468 214.543 211.388 216.543C211.581 218.094 211.463 219.668 211.04 221.173C211.04 221.173 223.856 219.213 225.064 206.41L219.629 203.994Z" fill="#4A98E2"/>
<path opacity="0.5" d="M219.629 203.994C219.629 203.994 215.468 214.543 211.388 216.543C211.581 218.094 211.463 219.668 211.04 221.173C211.04 221.173 223.856 219.213 225.064 206.41L219.629 203.994Z" fill="white"/>
<path d="M211.818 217.549C211.756 217.548 211.696 217.53 211.644 217.497C211.592 217.464 211.55 217.417 211.523 217.361C211.362 217.039 207.497 209.443 208.302 203.941C208.381 202.852 208.729 201.801 209.314 200.88C209.9 199.96 210.705 199.199 211.657 198.666C212.419 198.302 213.259 198.129 214.103 198.162C214.947 198.195 215.77 198.432 216.502 198.854C219.186 200.424 220.528 205.417 220.649 205.632C220.672 205.719 220.66 205.812 220.614 205.89C220.569 205.968 220.495 206.024 220.407 206.048C220.32 206.071 220.227 206.058 220.149 206.013C220.071 205.968 220.014 205.893 219.991 205.806C219.991 205.806 218.649 200.867 216.166 199.431C215.529 199.067 214.814 198.862 214.081 198.831C213.347 198.801 212.617 198.947 211.952 199.257C211.1 199.745 210.381 200.437 209.861 201.271C209.341 202.104 209.036 203.054 208.973 204.034C208.195 209.269 212.086 216.918 212.127 216.985C212.165 217.066 212.171 217.158 212.144 217.243C212.116 217.328 212.057 217.399 211.979 217.442C211.936 217.491 211.881 217.529 211.818 217.549Z" fill="white"/>
<path d="M209.201 201.646C209.074 202.778 209.198 203.924 209.564 205.003C209.931 206.082 210.531 207.066 211.322 207.886C213.308 209.604 215.871 206.866 216.69 203.35C217.361 200.25 217.173 195.499 214.529 195.298C211.885 195.096 209.362 198.344 209.201 201.646Z" fill="#F96363"/>
<path d="M188.654 476.984L200.397 475.373L202.021 447.472L190.305 449.096L188.654 476.984Z" fill="#FF7448"/>
<path opacity="0.2" d="M190.305 449.096L202.021 447.485L201.095 463.429L189.392 464.462L190.305 449.096Z" fill="black"/>
<path d="M228.742 344.911C225.373 381.925 208.745 459.832 208.745 459.832L187.138 458.181C187.138 458.181 186.252 385.884 195.297 348.897C180.239 347.166 129.04 355.996 119.028 338.644C118.965 338.548 118.906 338.45 118.853 338.348C113.485 328.417 120.477 291.081 120.477 291.081L186.238 295.013L189.11 312.956C198.505 316.312 207.698 318.056 214.918 321.116C224.125 325.022 230.003 330.98 228.742 344.911Z" fill="#4A98E2"/>
<path d="M201.31 473.951L188.05 473.132C187.83 473.109 187.609 473.174 187.436 473.312C187.263 473.45 187.151 473.65 187.124 473.87L185.782 484.338C185.752 484.886 185.937 485.425 186.298 485.838C186.659 486.252 187.167 486.508 187.714 486.553C192.345 486.767 194.572 486.633 200.397 486.955C203.98 487.17 211.04 487.922 215.978 487.452C220.917 486.982 220.327 482.084 218.193 481.869C213.12 481.292 206.423 477.574 203.256 474.742C202.708 474.277 202.026 473.999 201.31 473.951Z" fill="#15233E"/>
<path d="M201.565 475.4H201.807C201.807 475.4 202.075 475.481 202.115 475.521C202.156 475.561 202.115 475.521 202.115 475.601C202.15 475.615 202.188 475.615 202.223 475.601C203.226 475.92 204.261 476.127 205.31 476.219C206.086 476.352 206.884 476.195 207.551 475.776C207.758 475.589 207.909 475.348 207.985 475.08C208.061 474.811 208.059 474.527 207.98 474.259C207.96 474.082 207.895 473.913 207.792 473.768C207.688 473.622 207.55 473.505 207.39 473.427C206.261 473.243 205.104 473.457 204.115 474.031C204.809 473.302 205.222 472.351 205.283 471.347C205.232 471.109 205.108 470.894 204.927 470.733C204.746 470.571 204.518 470.471 204.276 470.448C204.043 470.406 203.804 470.412 203.574 470.465C203.343 470.518 203.125 470.617 202.934 470.756C201.699 471.83 201.498 475.172 201.498 475.373L201.565 475.4ZM202.84 474.716L202.599 474.85C202.599 473.736 202.854 471.857 203.592 471.226C203.673 471.152 203.768 471.094 203.872 471.057C203.976 471.02 204.086 471.005 204.196 471.011H204.33C204.719 471.011 204.813 471.28 204.826 471.441C204.572 472.733 203.868 473.893 202.84 474.716ZM203.001 475.306C204.437 474.514 206.464 473.655 207.215 473.964C207.295 473.999 207.363 474.054 207.413 474.126C207.463 474.197 207.492 474.28 207.497 474.367C207.544 474.536 207.545 474.714 207.5 474.884C207.455 475.054 207.366 475.209 207.242 475.333C206.678 475.883 205.095 475.856 203.001 475.306Z" fill="#4A98E2"/>
<path d="M120.477 291.108C120.477 291.108 135.75 189.299 216.408 224.675L219.629 251.087L214.032 257.596C214.032 257.596 192.949 272.507 186.265 295.04L120.477 291.108Z" fill="#4A98E2"/>
<path opacity="0.2" d="M219.629 251.087L214.032 257.596C211.028 259.826 208.188 262.27 205.537 264.911C198.827 271.42 190.144 281.941 186.265 295.04L120.504 291.108C120.504 291.108 135.777 189.299 216.435 224.675L219.119 247.034L219.629 251.087Z" fill="white"/>
<path opacity="0.2" d="M219.629 251.087L214.033 257.596C211.028 259.826 208.189 262.27 205.537 264.911C204.652 256.49 205.497 247.977 208.02 239.894L219.146 247.034L219.629 251.087Z" fill="black"/>
<path d="M259.019 282.706L270.668 288.209C271.648 286.739 272.753 285.356 273.969 284.075C278.092 283.027 282.301 282.354 286.544 282.062C287.403 282.331 289.229 292.691 287.887 294.06C286.544 295.429 275.486 296.744 275.486 296.744L272.587 295.765L257.019 291.443L259.019 282.706Z" fill="#F96363"/>
<path d="M216.408 224.675C224.286 227.682 230.835 261.274 233.13 264.293C235.425 267.313 265.729 284.518 265.729 284.518L263.045 294.852C263.045 294.852 228.889 282.908 224.286 279.016C219.683 275.124 208.718 250.497 208.718 250.497C207.587 244.903 207.587 239.14 208.718 233.547C210.704 225.024 216.408 224.675 216.408 224.675Z" fill="#4A98E2"/>
<path opacity="0.2" d="M216.408 224.675C224.286 227.682 230.835 261.274 233.13 264.293C235.425 267.313 265.729 284.518 265.729 284.518L263.045 294.852C263.045 294.852 228.889 282.908 224.286 279.016C219.683 275.124 208.718 250.497 208.718 250.497C207.587 244.903 207.587 239.14 208.718 233.547C210.704 225.024 216.408 224.675 216.408 224.675Z" fill="white"/>
<path d="M183.058 180.776L231.895 186.708L231.278 191.473L182.132 185.272L183.058 180.776Z" fill="#4A98E2"/>
<path d="M269.111 286.934V297.737L272.681 296.798L276.278 297.737C278.103 298.207 287.685 295.858 288.356 295.281C289.027 294.704 288.088 280.519 287.685 280.519C287.283 280.519 274.144 282.867 273.486 282.867C272.829 282.867 270.963 286.893 270.963 286.893L269.111 286.934Z" fill="white"/>
<path opacity="0.2" d="M228.742 344.911C225.373 381.925 208.745 459.832 208.745 459.832L187.138 458.182C187.138 458.182 186.252 385.884 195.298 348.897C180.24 347.166 129.04 355.997 119.028 338.644C125.738 341.422 137.468 343.126 155.438 335.637L214.946 321.116C224.125 325.022 230.004 330.981 228.742 344.911Z" fill="black"/>
<path d="M220.045 473.629L231.882 473.816L237.747 446.492L225.91 446.318L220.045 473.629Z" fill="#FF7448"/>
<path d="M233.519 474.246C233.519 474.246 233.519 474.313 233.519 474.34H233.613C234.558 474.799 235.547 475.159 236.566 475.414C237.316 475.665 238.133 475.632 238.861 475.32C239.095 475.167 239.283 474.951 239.401 474.697C239.52 474.444 239.565 474.162 239.532 473.884C239.539 473.707 239.501 473.532 239.421 473.375C239.341 473.217 239.222 473.083 239.076 472.985C237.996 472.614 236.818 472.648 235.761 473.078C236.575 472.462 237.145 471.578 237.371 470.582C237.378 470.349 237.304 470.12 237.162 469.935C237.021 469.749 236.82 469.617 236.593 469.562C236.401 469.488 236.195 469.46 235.99 469.478C235.785 469.497 235.587 469.562 235.412 469.67C234.07 470.542 233.654 473.87 233.627 474.058H233.828H233.627H233.425C233.419 474.095 233.424 474.134 233.441 474.168C233.458 474.202 233.486 474.229 233.519 474.246ZM234.352 473.548L234.097 473.642C234.311 472.542 234.808 470.73 235.64 470.22C235.729 470.154 235.832 470.108 235.941 470.087C236.051 470.066 236.163 470.07 236.271 470.099H236.391C236.767 470.22 236.834 470.435 236.821 470.596C236.808 471.441 235.519 472.837 234.392 473.548H234.352ZM234.432 474.152C235.962 473.588 238.096 473.038 238.794 473.508C238.866 473.556 238.924 473.622 238.962 473.7C239 473.778 239.016 473.865 239.008 473.951C239.029 474.125 239.003 474.302 238.932 474.462C238.861 474.623 238.749 474.761 238.606 474.863C237.989 475.279 236.459 475.011 234.472 474.152H234.432Z" fill="#4A98E2"/>
<path opacity="0.2" d="M225.91 446.318L237.733 446.505L234.392 462.127L222.662 461.362L225.91 446.318Z" fill="black"/>
<path d="M242.511 459.765L221.441 454.84C221.441 454.84 229.842 384.153 241.035 359.164C240.069 358.909 238.807 358.587 237.237 358.211C234.405 357.54 230.648 356.708 226.246 355.741C195.579 349.098 133.522 336.953 133.522 336.953L159.974 309.279C159.974 309.279 272.252 319.895 276.237 349.098C278.09 363.083 242.511 459.765 242.511 459.765Z" fill="#4A98E2"/>
<path d="M232.983 472.555L220.005 469.723C219.79 469.666 219.56 469.695 219.367 469.806C219.173 469.916 219.031 470.099 218.972 470.314L216.073 480.46C215.956 480.997 216.056 481.558 216.349 482.023C216.643 482.487 217.108 482.818 217.643 482.943C222.193 483.855 224.353 484.07 230.124 485.278C233.64 486.029 240.498 487.855 245.451 488.136C250.403 488.418 250.55 483.506 248.484 482.956C243.572 481.614 237.506 476.917 234.808 473.642C234.334 473.091 233.693 472.709 232.983 472.555Z" fill="#15233E"/>
<path d="M111.257 344.589H201.068C202.848 344.589 204.555 345.296 205.813 346.554C207.072 347.813 207.779 349.52 207.779 351.299V360.278H104.547V351.299C104.547 349.52 105.254 347.813 106.513 346.554C107.771 345.296 109.478 344.589 111.257 344.589Z" fill="#4A98E2"/>
<path opacity="0.3" d="M111.257 344.589H201.068C202.848 344.589 204.555 345.296 205.813 346.554C207.072 347.813 207.779 349.52 207.779 351.299V360.278H104.547V351.299C104.547 349.52 105.254 347.813 106.513 346.554C107.771 345.296 109.478 344.589 111.257 344.589Z" fill="black"/>
<path d="M93.9448 284.491H130.852C141.658 284.491 150.419 275.731 150.419 264.924V250.483C150.419 239.676 141.658 230.916 130.852 230.916H93.9448C83.1381 230.916 74.3775 239.676 74.3775 250.483V264.924C74.3775 275.731 83.1381 284.491 93.9448 284.491Z" fill="#4A98E2"/>
<g opacity="0.3">
<path opacity="0.3" d="M93.9451 284.491H130.852C141.659 284.491 150.419 275.73 150.419 264.924V250.483C150.419 239.676 141.659 230.916 130.852 230.916H93.9451C83.1383 230.916 74.3777 239.676 74.3777 250.483V264.924C74.3777 275.73 83.1383 284.491 93.9451 284.491Z" fill="black"/>
</g>
<path d="M108.479 457.645L147.157 453.846V391.44H162.484V453.82L201.31 457.645C203.173 457.828 204.901 458.697 206.158 460.084C207.416 461.47 208.113 463.275 208.114 465.147V470.944H101.688V465.147C101.689 463.277 102.384 461.474 103.639 460.088C104.894 458.702 106.619 457.831 108.479 457.645Z" fill="#15233E"/>
<path opacity="0.2" d="M108.479 457.645L147.157 453.846V391.44H162.484V453.82L201.31 457.645C203.173 457.828 204.901 458.697 206.158 460.084C207.416 461.47 208.113 463.275 208.114 465.147V470.944H101.688V465.147C101.689 463.277 102.384 461.474 103.639 460.088C104.894 458.702 106.619 457.831 108.479 457.645Z" fill="white"/>
<path d="M204.008 488.163C209.544 488.163 214.033 483.675 214.033 478.138C214.033 472.601 209.544 468.113 204.008 468.113C198.471 468.113 193.982 472.601 193.982 478.138C193.982 483.675 198.471 488.163 204.008 488.163Z" fill="#15233E"/>
<path d="M105.782 488.163C111.319 488.163 115.807 483.675 115.807 478.138C115.807 472.601 111.319 468.113 105.782 468.113C100.245 468.113 95.7566 472.601 95.7566 478.138C95.7566 483.675 100.245 488.163 105.782 488.163Z" fill="#15233E"/>
<path d="M159.572 403.116H150.056C148.586 403.116 147.176 402.532 146.137 401.493C145.098 400.453 144.514 399.044 144.514 397.574V354.722H165.114V397.574C165.114 399.044 164.53 400.453 163.491 401.493C162.451 402.532 161.042 403.116 159.572 403.116Z" fill="#15233E"/>
<path opacity="0.3" d="M159.572 403.116H150.056C148.586 403.116 147.176 402.532 146.137 401.493C145.098 400.453 144.514 399.044 144.514 397.574V354.722H165.114V397.574C165.114 399.044 164.53 400.453 163.491 401.493C162.451 402.532 161.042 403.116 159.572 403.116Z" fill="white"/>
<path d="M118.182 269.755C118.182 269.755 115.257 342.227 135.428 354.708H112.398C112.398 354.708 94.5486 330.014 99.5948 269.755H118.182Z" fill="#15233E"/>
<path opacity="0.3" d="M118.182 269.755C118.182 269.755 115.257 342.227 135.428 354.708H112.398C112.398 354.708 94.5486 330.014 99.5948 269.755H118.182Z" fill="white"/>
<path d="M209.389 352.427H102.95C101.46 352.427 100.252 353.634 100.252 355.124V357.567C100.252 359.056 101.46 360.264 102.95 360.264H209.389C210.879 360.264 212.087 359.056 212.087 357.567V355.124C212.087 353.634 210.879 352.427 209.389 352.427Z" fill="#15233E"/>
<path opacity="0.6" d="M209.389 352.427H102.95C101.46 352.427 100.252 353.634 100.252 355.124V357.567C100.252 359.056 101.46 360.264 102.95 360.264H209.389C210.879 360.264 212.087 359.056 212.087 357.567V355.124C212.087 353.634 210.879 352.427 209.389 352.427Z" fill="white"/>
<path d="M118.477 247.195H97.635C91.5275 247.195 86.5764 252.146 86.5764 258.254V266.4C86.5764 272.508 91.5275 277.459 97.635 277.459H118.477C124.585 277.459 129.536 272.508 129.536 266.4V258.254C129.536 252.146 124.585 247.195 118.477 247.195Z" fill="#15233E"/>
<path opacity="0.2" d="M118.477 247.195H97.635C91.5275 247.195 86.5764 252.146 86.5764 258.254V266.4C86.5764 272.508 91.5275 277.459 97.635 277.459H118.477C124.585 277.459 129.536 272.508 129.536 266.4V258.254C129.536 252.146 124.585 247.195 118.477 247.195Z" fill="white"/>
</svg>
