<svg width="500" height="418" viewBox="0 0 500 418" fill="none" xmlns="http://www.w3.org/2000/svg">
<path d="M250 417.484C388.071 417.484 500 402.345 500 383.671C500 364.997 388.071 349.858 250 349.858C111.929 349.858 0 364.997 0 383.671C0 402.345 111.929 417.484 250 417.484Z" fill="#EBEBEB"/>
<path d="M408.189 390.964H80.6621L128.015 122.124H455.542L408.189 390.964Z" fill="#FFC727"/>
<path d="M240.115 94.2766H132.928L128.016 122.124H242.727L240.115 94.2766Z" fill="#FFC727"/>
<g opacity="0.1">
<path d="M408.189 390.964H80.6621L128.015 122.124H455.542L408.189 390.964Z" fill="black"/>
<path d="M240.115 94.2766H132.928L128.016 122.124H242.727L240.115 94.2766Z" fill="black"/>
</g>
<path d="M121.362 105.639C120.645 102.56 120.645 99.3572 121.362 96.2781C122.079 99.3572 122.079 102.56 121.362 105.639V105.639Z" fill="#263238"/>
<path d="M111.837 108.394C110.743 107.258 109.8 105.985 109.032 104.606C108.226 103.257 107.594 101.81 107.15 100.302C108.248 101.432 109.192 102.702 109.956 104.079C110.76 105.433 111.392 106.883 111.837 108.394V108.394Z" fill="#263238"/>
<path d="M104.958 115.549C101.937 114.63 99.1679 113.029 96.8633 110.869C98.3703 111.307 99.8153 111.936 101.163 112.741C102.54 113.515 103.815 114.458 104.958 115.549V115.549Z" fill="#263238"/>
<path d="M102.55 125.19C99.4734 125.908 96.2735 125.908 93.1973 125.19C96.2735 124.473 99.4734 124.473 102.55 125.19V125.19Z" fill="#263238"/>
<path d="M105.344 134.724C104.204 135.814 102.933 136.757 101.56 137.532C100.212 138.337 98.7668 138.966 97.2598 139.404C98.3948 138.309 99.6667 137.365 101.044 136.596C102.39 135.788 103.835 135.158 105.344 134.724V134.724Z" fill="#263238"/>
<path d="M112.483 141.599C111.568 144.628 109.968 147.404 107.807 149.713C108.244 148.202 108.877 146.755 109.688 145.409C110.454 144.025 111.393 142.745 112.483 141.599V141.599Z" fill="#263238"/>
<path d="M122.115 143.977C122.489 145.509 122.67 147.081 122.652 148.658C122.675 150.235 122.495 151.808 122.115 153.339C121.729 151.809 121.549 150.235 121.577 148.658C121.559 147.081 121.74 145.509 122.115 143.977V143.977Z" fill="#263238"/>
<path d="M131.639 141.277C132.733 142.413 133.676 143.686 134.444 145.064C135.252 146.411 135.881 147.858 136.315 149.368C134.154 147.059 132.554 144.283 131.639 141.255V141.277Z" fill="#263238"/>
<path d="M138.508 134.067C140.016 134.502 141.462 135.131 142.808 135.94C144.185 136.709 145.457 137.652 146.592 138.748C145.083 138.314 143.638 137.684 142.292 136.876C140.915 136.107 139.643 135.163 138.508 134.067V134.067Z" fill="#263238"/>
<path d="M140.885 124.426C143.965 123.709 147.168 123.709 150.248 124.426C147.168 125.144 143.965 125.144 140.885 124.426V124.426Z" fill="#263238"/>
<path d="M138.131 114.893C139.269 113.804 140.54 112.864 141.915 112.095C143.258 111.279 144.704 110.646 146.215 110.212C143.908 112.375 141.135 113.977 138.109 114.893H138.131Z" fill="#263238"/>
<path d="M130.982 108.017C131.425 106.51 132.053 105.065 132.853 103.713C133.621 102.335 134.564 101.062 135.659 99.9257C135.225 101.436 134.596 102.882 133.788 104.23C133.02 105.608 132.077 106.881 130.982 108.017V108.017Z" fill="#263238"/>
<path d="M407.706 390.964H79.4805L32.8691 131.883H361.105L407.706 390.964Z" fill="#FFC727"/>
<path d="M386.032 275.562L385.807 274.486C386.505 274.336 387.193 274.174 387.881 273.991L388.15 275.067C387.419 275.25 386.742 275.412 386.032 275.562Z" fill="#263238"/>
<path d="M392.31 273.83L391.966 272.819C393.31 272.356 394.653 271.85 395.954 271.301L396.373 272.291C395.051 272.851 393.686 273.367 392.31 273.83ZM400.318 270.398L399.835 269.451C401.092 268.794 402.35 268.084 403.543 267.299L404.102 268.213C402.877 269.063 401.598 269.784 400.318 270.398ZM407.714 265.846L407.08 264.974C408.241 264.124 409.359 263.231 410.413 262.317L411.122 263.124C409.993 264.103 408.918 265.018 407.704 265.889L407.714 265.846ZM414.272 260.122L413.487 259.379C414.476 258.303 415.411 257.227 416.271 256.151L417.12 256.808C416.228 257.991 415.272 259.099 414.293 260.165L414.272 260.122ZM419.593 253.235L418.679 252.665C419.422 251.463 420.083 250.212 420.657 248.92L421.646 249.362C421.038 250.708 420.349 252.016 419.582 253.278L419.593 253.235ZM423.151 245.251L422.076 244.95C422.469 243.6 422.76 242.222 422.947 240.829L424.022 240.969C423.844 242.432 423.549 243.878 423.14 245.294L423.151 245.251ZM424.344 236.643H423.269V236.331C423.269 235.029 423.194 233.706 423.065 232.404L424.14 232.296C424.281 233.636 424.353 234.983 424.355 236.331L424.344 236.643ZM422.409 228.218C422.12 226.831 421.761 225.459 421.334 224.108L422.409 223.785C422.85 225.184 423.226 226.604 423.484 227.992L422.409 228.218ZM419.862 220.116C419.346 218.846 418.787 217.544 418.099 216.231L419.066 215.747C419.722 217.081 420.324 218.416 420.851 219.707L419.862 220.116ZM416.099 212.444C415.433 211.271 414.702 210.033 413.949 208.764L414.863 208.193C415.648 209.474 416.39 210.722 417.013 211.916L416.099 212.444ZM411.606 205.138C410.821 203.954 410.026 202.76 409.209 201.565L410.101 200.963C410.918 202.157 411.713 203.351 412.498 204.557L411.606 205.138ZM406.768 198.014C405.962 196.831 405.145 195.636 404.35 194.453L405.242 193.85C406.037 195.034 406.844 196.228 407.65 197.401L406.768 198.014ZM401.963 190.848C401.178 189.643 400.415 188.416 399.663 187.19L400.576 186.63C401.329 187.857 402.092 189.062 402.866 190.267L401.963 190.848ZM397.48 183.456C396.749 182.154 396.072 180.863 395.46 179.625L396.427 179.141C397.029 180.368 397.706 181.638 398.416 182.929L397.48 183.456ZM393.664 175.709C393.095 174.364 392.589 172.997 392.116 171.663L393.191 171.319C393.643 172.621 394.148 173.966 394.707 175.289L393.664 175.709ZM390.869 167.499C390.515 166.1 390.203 164.669 389.966 163.195L391.041 163.023C391.278 164.4 391.568 165.799 391.923 167.176L390.869 167.499ZM389.429 158.891C389.321 157.567 389.268 156.233 389.268 154.899V154.544H390.343V154.888C390.343 156.19 390.343 157.503 390.504 158.794L389.429 158.891ZM390.504 150.283L389.429 150.175C389.429 149.885 389.483 149.583 389.515 149.271C389.644 148.12 389.805 146.969 389.999 145.871L391.074 146.054C390.891 147.13 390.73 148.26 390.601 149.39C390.644 149.723 390.644 150.014 390.558 150.315L390.504 150.283ZM391.998 141.911L390.923 141.621C391.321 140.201 391.783 138.812 392.299 137.489L393.299 137.876C392.81 139.209 392.394 140.566 392.052 141.944L391.998 141.911ZM445.565 135.638C444.963 135.638 444.339 135.552 443.726 135.466C442.888 135.348 442.049 135.208 441.222 135.046L441.437 133.97C442.232 134.121 443.06 134.261 443.877 134.379C444.457 134.455 445.049 134.508 445.618 134.541L445.565 135.638ZM449.983 135.305L449.757 134.229C451.106 133.95 452.4 133.448 453.584 132.744L454.143 133.658C452.877 134.443 451.489 135.01 450.037 135.337L449.983 135.305ZM395.094 134.024L394.137 133.518C394.822 132.235 395.579 130.992 396.405 129.796L397.287 130.409C396.501 131.581 395.787 132.799 395.148 134.056L395.094 134.024ZM437.018 133.96C435.631 133.519 434.267 133.005 432.934 132.421L433.374 131.431C434.667 132.006 435.991 132.505 437.341 132.927L437.018 133.96ZM457.443 130.603L456.551 130C457.316 128.888 457.769 127.591 457.862 126.245L458.937 126.32C458.846 127.864 458.341 129.354 457.475 130.635L457.443 130.603ZM429.064 130.441C427.806 129.709 426.589 128.908 425.419 128.042L426.054 127.181C427.192 128.021 428.376 128.797 429.601 129.505L429.064 130.441ZM399.931 127.084L399.136 126.363C400.109 125.279 401.147 124.255 402.243 123.296L402.952 124.103C401.898 125.048 400.9 126.054 399.964 127.116L399.931 127.084ZM422.065 125.266C420.995 124.278 419.979 123.233 419.023 122.134L419.829 121.424C420.76 122.491 421.747 123.508 422.786 124.469L422.065 125.266ZM457.056 122.35C456.44 121.12 455.589 120.023 454.551 119.122L455.261 118.315C456.403 119.303 457.342 120.506 458.024 121.855L457.056 122.35ZM406.295 121.499L405.683 120.617C406.885 119.795 408.13 119.037 409.413 118.347L409.918 119.294C408.683 119.977 407.485 120.724 406.328 121.532L406.295 121.499ZM416.336 118.702C415.927 118.121 415.529 117.529 415.153 116.916L413.756 117.464L413.347 116.475L414.584 115.98C414.39 115.657 414.197 115.334 414.014 115.011L414.949 114.484C415.164 114.861 415.379 115.237 415.605 115.56C416.207 115.345 416.819 115.14 417.443 114.947L417.755 116.023C417.228 116.184 416.68 116.356 416.185 116.539C416.518 117.066 416.862 117.615 417.26 118.078L416.336 118.702ZM451.09 116.851C450.05 116.332 448.972 115.893 447.865 115.538L447.156 115.312L447.467 114.236L448.198 114.473C449.35 114.841 450.471 115.297 451.552 115.84L451.09 116.851ZM421.872 114.925L421.646 113.849C423.033 113.537 424.473 113.279 425.946 113.074L426.107 114.15C424.688 114.376 423.28 114.645 421.904 114.957L421.872 114.925ZM443.049 114.344C441.705 114.107 440.286 113.924 438.835 113.795L438.921 112.719C440.415 112.848 441.867 113.031 443.221 113.279L443.049 114.344ZM430.311 113.72L430.235 112.644C431.515 112.569 432.794 112.526 434.062 112.526H434.589V113.602H434.073C432.858 113.634 431.59 113.666 430.343 113.752L430.311 113.72ZM412.143 111.148C411.563 109.836 411.068 108.469 410.585 107.081L411.66 106.747C412.111 108.103 412.616 109.437 413.175 110.718L412.143 111.148ZM409.424 102.885C409.101 101.496 408.832 100.055 408.628 98.5805L409.703 98.4299C409.907 99.8502 410.165 101.26 410.477 102.626L409.424 102.885ZM408.22 94.2765C408.166 93.3081 408.134 92.3181 408.134 91.3282C408.134 90.8655 408.134 90.3921 408.134 89.9294H409.209C409.209 90.3921 409.209 90.844 409.209 91.3067C409.209 92.2751 409.209 93.2543 409.284 94.1904L408.22 94.2765ZM409.499 85.6684L408.424 85.5608C408.574 84.1405 408.779 82.6879 409.026 81.2568L410.101 81.4397C409.811 82.8708 409.606 84.2481 409.467 85.6899L409.499 85.6684ZM410.972 77.2648L409.897 77.0065C410.241 75.6185 410.638 74.2197 411.079 72.8209L412.154 73.1544C411.67 74.564 411.273 75.9305 410.939 77.2863L410.972 77.2648ZM413.552 69.1194L412.552 68.732C413.079 67.387 413.627 66.042 414.283 64.74L415.25 65.2135C414.605 66.5047 414.035 67.8174 413.519 69.1839L413.552 69.1194ZM417.249 61.4474L416.314 60.8987C417.045 59.6613 417.83 58.4239 418.647 57.2403L419.528 57.8536C418.69 59.0372 417.927 60.2423 417.217 61.469L417.249 61.4474ZM422.098 54.4426L421.259 53.7647C422.162 52.6887 423.13 51.5482 424.129 50.5367L424.903 51.2792C423.893 52.2906 422.947 53.3666 422.065 54.4641L422.098 54.4426ZM427.946 48.2448L427.225 47.4486C428.3 46.4909 429.375 45.544 430.526 44.6294L431.192 45.4795C430.042 46.3941 428.945 47.3302 427.913 48.2663L427.946 48.2448ZM434.621 42.9293L434.009 42.0362C435.18 41.2292 436.406 40.433 437.653 39.6798L438.201 40.5944C436.954 41.3584 435.793 42.1439 434.589 42.9509L434.621 42.9293ZM441.92 38.4854L441.415 37.5385C442.684 36.8606 443.995 36.215 445.307 35.6125L445.758 36.5916C444.393 37.205 443.135 37.8506 441.888 38.5069L441.92 38.4854ZM449.693 34.9131L449.295 33.9016C450.649 33.3744 452.014 32.8256 453.369 32.4275L453.713 33.5035C452.348 33.9124 450.993 34.4073 449.66 34.9346L449.693 34.9131Z" fill="#263238"/>
<path d="M457.982 32.1907L457.713 31.1147C459.046 30.7703 459.863 30.6197 459.863 30.6197L460.056 31.6957C460.056 31.6957 459.282 31.8571 457.982 32.1907Z" fill="#263238"/>
<path d="M476.987 25.2398C474.246 16.7393 455.885 19.7951 459.465 30.9103C463.045 42.0255 479.728 33.751 476.987 25.2398Z" fill="#263238"/>
<path d="M449.477 21.8395C449.617 18.1058 454.799 15.2328 462.13 16.5563C469.462 17.8798 476.352 22.8295 476.352 22.8295C476.352 22.8295 469.118 27.2196 461.711 28.0266C454.304 28.8336 449.338 25.5625 449.477 21.8395Z" fill="#EBEBEB"/>
<path d="M476.352 22.8079C472.547 22.8079 468.752 22.7003 464.957 22.5819C461.163 22.4636 457.357 22.2699 453.562 21.9686C457.368 21.9686 461.173 22.0654 464.968 22.1838C468.763 22.3022 472.568 22.4958 476.352 22.8079Z" fill="#263238"/>
<path d="M456.842 18.5146C459.002 19.5491 461.039 20.8232 462.915 22.3129C461.834 21.8051 460.786 21.2301 459.776 20.5913C458.759 19.9569 457.779 19.2635 456.842 18.5146V18.5146Z" fill="#263238"/>
<path d="M466.806 22.4529C464.862 24.0304 462.753 25.394 460.518 26.5202C462.472 24.9407 464.591 23.577 466.839 22.4529H466.806Z" fill="#263238"/>
<path d="M467.914 20.3546C468.999 20.876 469.949 21.6421 470.688 22.5927C470.145 22.3365 469.636 22.0149 469.172 21.6351C468.705 21.2576 468.283 20.828 467.914 20.3546V20.3546Z" fill="#263238"/>
<path d="M456.465 43.9515C458.754 46.8998 464.635 46.1896 469.805 40.8311C474.976 35.4726 477.717 27.4132 477.717 27.4132C477.717 27.4132 469.246 28.0588 462.786 31.7173C456.325 35.3757 454.164 40.9925 456.465 43.9515Z" fill="#EBEBEB"/>
<path d="M477.718 27.4132C474.622 29.5653 471.612 31.954 468.591 34.2674C465.571 36.5808 462.614 38.9696 459.723 41.4336C462.819 39.2816 465.829 36.9036 468.838 34.5902C471.848 32.2768 474.783 29.8881 477.718 27.4132Z" fill="#263238"/>
<path d="M464.367 42.2838C464.942 41.2386 465.455 40.1607 465.904 39.0558C466.362 37.9477 466.75 36.8121 467.065 35.6555C466.489 36.6999 465.976 37.7778 465.528 38.8836C465.075 39.9933 464.688 41.1287 464.367 42.2838Z" fill="#263238"/>
<path d="M470.193 33.2883C467.678 33.1537 465.155 33.2871 462.668 33.6864C463.921 33.7617 465.177 33.7617 466.43 33.6864C467.691 33.6249 468.947 33.4919 470.193 33.2883V33.2883Z" fill="#263238"/>
<path d="M472.268 34.3535C472.555 33.8222 472.778 33.2587 472.934 32.675C473.093 32.0955 473.187 31.5 473.214 30.8996C472.642 31.9647 472.319 33.1455 472.268 34.3535V34.3535Z" fill="#263238"/>
<path d="M476.987 25.2397C476.379 25.437 475.728 25.4495 475.113 25.2757C474.499 25.1019 473.95 24.7496 473.536 24.2633C473.122 23.777 472.862 23.1787 472.787 22.5441C472.713 21.9095 472.829 21.2672 473.12 20.6984C473.411 20.1297 473.864 19.6602 474.421 19.3493C474.979 19.0384 475.616 18.9002 476.253 18.9521C476.889 19.004 477.495 19.2437 477.995 19.6408C478.495 20.038 478.866 20.5747 479.061 21.1831C479.322 21.9964 479.25 22.8801 478.861 23.6404C478.472 24.4008 477.798 24.9758 476.987 25.2397Z" fill="#455A64"/>
<path d="M478.964 31.3838C478.357 31.5803 477.706 31.5923 477.092 31.4184C476.479 31.2444 475.93 30.8923 475.517 30.4065C475.103 29.9206 474.842 29.323 474.768 28.689C474.694 28.055 474.809 27.4131 475.099 26.8446C475.389 26.2761 475.841 25.8064 476.397 25.4949C476.954 25.1834 477.59 25.0441 478.226 25.0946C478.862 25.1451 479.468 25.3832 479.969 25.7786C480.469 26.1741 480.842 26.7093 481.038 27.3165C481.169 27.7199 481.219 28.1451 481.186 28.5679C481.152 28.9907 481.036 29.4027 480.843 29.7804C480.65 30.1582 480.385 30.4942 480.063 30.7693C479.74 31.0444 479.367 31.2532 478.964 31.3838V31.3838Z" fill="#455A64"/>
</svg>
